<svg width="226" height="90" viewBox="0 0 226 90" fill="none" xmlns="http://www.w3.org/2000/svg">
<path fill-rule="evenodd" clip-rule="evenodd" d="M20.7862 59.6927C20.7862 59.6927 22.3685 59.3059 24.2146 58.6554C26.0606 58.0049 26.7111 57.7412 30.4735 57.4247C34.2359 57.1082 33.5151 56.194 33.5678 55.0864C33.6382 53.9788 33.4975 51.8514 32.847 51.324C32.1789 50.7965 30.0692 53.0118 28.1 53.9788C26.1133 54.9457 20.0653 55.5259 20.0653 55.5259L20.7862 59.6927ZM4.13661 62.7343C4.13661 62.7343 1.42908 56.3347 0.83131 52.6074C0.215962 48.8626 -0.522456 47.667 4.75196 45.1177C10.0264 42.586 17.6391 40.529 22.2982 39.2104C26.9572 37.8918 33.8316 37.1534 35.8007 38.4896C37.7698 39.8257 39.4752 41.1443 41.4443 42.4805C43.4134 43.8167 48.934 47.667 49.5493 51.5349C50.1647 55.4029 47.7033 61.908 45.3825 63.7188C43.0442 65.5297 38.139 66.4967 36.416 66.9714C34.6931 67.4461 32.9701 69.0284 30.2801 69.1339C27.5902 69.257 23.8981 69.257 24.8826 72.3865C25.8672 75.5335 28.1879 79.1377 28.5572 80.9486C28.9264 82.7595 28.4341 86.5043 26.2188 86.979C24.0036 87.4537 22.4037 87.5768 19.4676 88.4207C16.5315 89.2646 13.7009 90.8294 11.4856 88.2976C9.27037 85.7659 6.94963 81.5464 6.33428 75.516C5.71894 69.4855 5.34973 67.5516 4.73438 65.1429L4.13661 62.7343Z" fill="#0D0A06"/>
<path fill-rule="evenodd" clip-rule="evenodd" d="M19.5412 62.8041C19.5412 62.8041 19.4006 60.7999 19.4006 58.1978C19.4006 55.6134 18.2226 53.3981 18.2226 53.3981C18.2226 53.3981 19.7346 54.1189 21.985 53.908C24.2179 53.7146 27.8572 52.4136 29.1055 50.9191C30.3538 49.4247 30.4241 45.9963 30.4241 45.9963C30.4241 45.9963 30.4241 48.3874 30.6878 49.1083C30.9515 49.8291 31.479 49.6357 32.8679 49.9522C34.2568 50.2686 34.2568 50.6027 34.7139 51.9037C35.1711 53.2047 35.5051 55.4727 34.8546 57.0199C34.1865 58.567 28.9297 58.8308 24.4464 59.8681C19.928 60.9229 19.5412 62.8041 19.5412 62.8041ZM8.55284 58.8835L5.72224 62.1361C5.72224 62.1361 6.46065 66.8479 7.69135 72.7552C8.92205 78.6626 9.5374 83.8491 11.4889 86.0292C13.458 88.2092 12.2273 88.807 16.7633 87.9631C21.2993 87.1192 23.5146 85.6775 23.5146 85.6775C23.5146 85.6775 28.1737 86.6445 27.4352 82.8997C26.6968 79.1548 25.3431 78.6801 24.1124 75.9023C22.8817 73.1244 21.8971 69.8719 23.497 69.2741C25.0969 68.6763 27.5759 67.3226 30.4944 67.8324C33.4129 68.3423 34.0458 66.0215 36.138 65.5468C38.2302 65.0721 42.2036 65.8457 45.7199 60.9581C49.2186 56.0705 48.6736 50.7082 45.5968 47.6842C42.5377 44.6602 36.0325 39.3506 32.2174 39.3506C28.4022 39.3506 25.3431 40.1945 21.4224 41.0384C17.4842 41.8823 12.2098 43.5701 8.53526 45.1349C4.86075 46.6996 1.16866 47.5435 2.03014 50.9191C2.89163 54.2948 3.63005 57.1957 3.99926 59.0066C4.36847 60.8174 4.64977 61.1691 5.7574 60.501C6.90019 59.8153 8.55284 58.8835 8.55284 58.8835Z" fill="#FCC500"/>
<path fill-rule="evenodd" clip-rule="evenodd" d="M59.3639 35.0899C59.3639 35.0899 61.8253 34.0702 62.9857 33.9471C64.146 33.824 65.3064 34.1932 66.6074 34.3339C67.9085 34.457 67.6447 35.2305 69.4556 34.2108C71.2665 33.1911 73.5872 32.5582 73.7279 33.5779C73.851 34.5976 72.8312 42.5971 72.8312 46.1662C72.8312 49.7352 72.9543 58.7544 73.095 61.1631C73.218 63.5893 74.0092 65.7342 74.0092 65.7342C74.0092 65.7342 75.5564 65.6112 76.0838 67.51C76.5937 69.4087 76.9805 70.8153 78.0178 71.7119C79.0551 72.6086 79.5649 74.2612 75.1696 75.7732C70.7742 77.3028 64.4449 79.5884 62.4934 79.9752C60.5594 80.3619 58.6079 79.2192 58.3618 77.0566C58.0981 74.8941 56.8146 67.0177 56.5509 60.6532C56.2872 54.2888 54.4763 47.6782 54.0895 43.2301C53.7027 38.782 53.0522 35.4767 55.1268 35.4767C57.1662 35.4591 59.3639 35.0899 59.3639 35.0899Z" fill="#0D0A06"/>
<path fill-rule="evenodd" clip-rule="evenodd" d="M64.4721 35.4622C62.1162 35.4622 60.8328 36.5171 58.9691 36.6577C57.1055 36.7984 55.1188 35.8842 55.4001 38.3456C55.6814 40.807 57.2637 46.4857 57.3341 51.1272C57.4044 55.7687 57.545 58.3532 57.545 59.7597C57.545 61.1662 57.8263 61.9398 58.2483 61.8695C58.6878 61.7991 59.9713 61.9398 59.9713 61.9398C59.9713 61.9398 58.4769 62.4321 58.4769 63.4166C58.4769 64.4012 59.3383 70.9942 59.69 74.2995C60.0416 77.6048 59.9713 79.275 63.6106 78.3784C67.25 77.4641 71.6805 75.5654 73.8957 74.6511C76.111 73.7369 77.3241 73.7369 75.9 70.9942C74.4759 68.2515 74.3353 67.8999 73.6848 67.4076C73.0342 66.8977 71.6805 66.8977 71.6805 66.8977C71.6805 66.8977 72.542 66.4758 72.4716 65.1396C72.4013 63.8034 71.9618 55.7335 71.9618 50.6174C71.9618 45.5012 71.6102 39.1719 71.8915 37.4841C72.1728 35.7963 72.9639 34.7414 72.1728 34.6007C71.3816 34.4601 71.1706 35.7259 69.5356 35.9369C67.9005 36.1479 66.828 36.1479 66.2478 36.0072C65.6852 35.8842 64.4721 35.4622 64.4721 35.4622Z" fill="#FCC500"/>
<path fill-rule="evenodd" clip-rule="evenodd" d="M68.6903 38.5596C68.6903 38.5596 69.3232 39.4738 69.9034 40.3177C70.4836 41.1616 70.8352 41.1616 70.8352 41.1616C70.8352 41.1616 71.3275 39.8254 70.8352 39.4035C70.3254 38.9639 68.6903 38.5596 68.6903 38.5596Z" fill="#0D0A06"/>
<path fill-rule="evenodd" clip-rule="evenodd" d="M62.8432 70.8428C62.8432 70.8428 63.3355 73.3745 62.7025 73.7261C62.0696 74.0777 61.4191 73.8668 61.4191 73.8668C61.4191 73.8668 61.9641 73.3042 62.2278 72.3899C62.474 71.4757 62.8432 70.8428 62.8432 70.8428Z" fill="#0D0A06"/>
<path fill-rule="evenodd" clip-rule="evenodd" d="M80.83 34.4787C80.83 34.4787 80.4432 38.8213 80.7421 42.2146C81.0586 45.5902 80.5839 47.3132 82.2541 47.1198C83.9419 46.9264 86.9659 46.1176 91.9942 46.0297C97.0225 45.9418 99.519 46.1 99.519 46.1C99.519 46.1 88.7416 53.2381 85.9638 56.8599C83.1683 60.464 83.3793 61.1497 82.5354 64.4023C81.6915 67.6548 82.3244 73.3512 82.7991 74.5995C83.2562 75.8478 84.4166 76.0411 88.2845 75.6719C92.1348 75.3027 98.3235 73.193 104.002 73.527C109.681 73.8786 112.248 74.4412 116.397 75.3906C120.546 76.34 122.726 76.4983 123.834 75.8653C124.942 75.25 125.821 73.8786 125.909 71.2414C125.997 68.6042 126.331 63.1892 126.19 62.6969C126.032 62.2046 126.665 60.8157 122.006 60.341C117.347 59.8663 110.296 60.3058 107.536 60.2179C104.776 60.13 101.769 60.1124 101.769 60.1124C101.769 60.1124 109.681 53.2029 113.285 50.4426C116.889 47.6824 118.595 46.5044 118.982 45.2737C119.351 44.0606 120.863 38.6807 121.056 35.4809C121.25 32.2811 121.636 30.5581 119.72 30.2592C117.804 29.9603 119.193 30.8218 114.832 31.3317C110.472 31.8591 103.422 32.2811 100.416 32.2811C97.4092 32.2635 95.3171 32.1228 90.6228 32.2283C85.9286 32.3338 84.3463 32.3514 83.1683 32.8085C81.9552 33.2832 81.0586 33.0019 80.83 34.4787Z" fill="#0D0A06"/>
<path fill-rule="evenodd" clip-rule="evenodd" d="M82.4121 34.5351C83.2384 34.0077 85.4888 33.7615 91.5192 33.7967C97.5496 33.8319 101.171 33.7088 107.219 33.4978C113.25 33.2868 115.992 33.3044 117.294 32.7067C118.595 32.1089 120.194 30.0343 119.509 33.7264C118.823 37.4185 118.155 41.0402 117.68 42.9214C117.223 44.8026 117.856 44.5917 115.395 46.6487C112.916 48.7057 102.754 56.9162 101.505 58.3931C100.257 59.8523 99.1847 63.0697 99.1847 63.0697C99.1847 63.0697 99.466 61.8214 102.701 61.4522C105.936 61.083 109.382 61.2588 111.791 61.3467C114.199 61.4171 115.008 61.1358 114.99 61.839C114.973 62.5423 115.272 63.0345 115.272 63.0345C115.272 63.0345 116.028 61.9445 117.329 61.6808C118.63 61.3995 121.109 61.7159 122.533 62.0851C123.974 62.4544 124.695 62.4719 124.59 65.6366C124.484 68.8012 124.432 73.0559 123.746 73.9877C123.078 74.9196 122.515 74.9723 119.069 74.2339C115.641 73.4955 109.892 72.0538 105.866 72.1593C101.839 72.2648 97.9716 72.2999 93.207 73.3372C88.4249 74.3745 84.6976 75.447 84.1702 74.2339C83.6428 73.0383 83.4318 65.0388 84.3108 62.4544C85.1899 59.8699 90.183 54.8065 93.6466 52.0813C97.1101 49.3386 104.072 45.4532 104.758 44.2049C105.444 42.9566 105.637 41.9369 105.18 40.8996C104.74 39.8623 103.861 39.3524 103.861 39.3524C103.861 39.3524 104.459 40.9523 103.686 42.2709C102.912 43.5895 102.578 44.1346 100.574 44.3104C98.5518 44.4862 91.0797 44.4159 89.0578 44.7323C87.036 45.0664 83.8713 45.6817 83.2384 45.7345C82.5879 45.7872 82.1132 45.6114 82.2362 44.3631C82.3593 43.0973 82.3769 42.4643 82.4472 40.1787C82.5527 37.858 81.6385 36.3284 82.4121 34.5351Z" fill="#FCC500"/>
<path fill-rule="evenodd" clip-rule="evenodd" d="M135.962 33.4949C135.962 33.4949 134.925 37.732 134.714 41.1253C134.503 44.5185 133.782 46.1359 135.47 46.1887C137.157 46.2414 140.287 45.8898 145.262 46.5403C150.238 47.1908 152.699 47.7183 152.699 47.7183C152.699 47.7183 140.955 53.1861 137.632 56.3507C134.327 59.5154 134.432 60.2186 133.096 63.313C131.777 66.4073 131.531 72.1388 131.795 73.4398C132.059 74.7409 133.184 75.1101 137.052 75.3035C140.92 75.4969 147.355 74.3189 152.91 75.4969C158.466 76.6748 160.927 77.6066 164.883 79.1538C168.839 80.701 170.966 81.1757 172.162 80.7185C173.357 80.2614 174.43 79.0307 174.905 76.4463C175.397 73.8618 176.54 68.5522 176.469 68.0424C176.399 67.5325 177.225 66.2666 172.689 65.1063C168.136 63.9459 161.121 63.3481 158.396 62.8559C155.688 62.3636 152.699 61.9065 152.699 61.9065C152.699 61.9065 161.578 56.2452 165.551 54.03C169.525 51.8323 171.406 50.9005 171.968 49.7577C172.531 48.5973 174.834 43.4987 175.502 40.3693C176.17 37.2398 176.821 35.5871 174.975 35.0069C173.129 34.4267 174.377 35.4816 169.982 35.3586C165.586 35.2355 158.554 34.6377 155.583 34.1806C152.611 33.7235 150.572 33.284 145.913 32.6862C141.254 32.106 139.689 31.895 138.441 32.1763C137.245 32.4752 136.384 32.0708 135.962 33.4949Z" fill="#0D0A06"/>
<path fill-rule="evenodd" clip-rule="evenodd" d="M137.508 33.7757C138.405 33.3713 140.673 33.4592 146.633 34.3735C152.593 35.2877 156.197 35.6921 162.192 36.3777C168.205 37.0634 170.895 37.4678 172.284 37.081C173.673 36.6942 175.554 34.8657 174.324 38.4172C173.093 41.9686 171.862 45.4497 171.124 47.243C170.385 49.0363 171.053 48.9133 168.293 50.5835C165.533 52.2537 154.246 58.8995 152.786 60.1653C151.327 61.4312 149.78 64.4376 149.78 64.4376C149.78 64.4376 150.255 63.2421 153.507 63.3476C156.76 63.4531 160.135 64.1387 162.509 64.5783C164.882 65.0002 165.726 64.842 165.603 65.5453C165.48 66.2485 165.709 66.776 165.709 66.776C165.709 66.776 166.623 65.809 167.942 65.7387C169.26 65.6507 171.669 66.3364 173.04 66.899C174.412 67.4616 175.115 67.5847 174.535 70.6966C173.954 73.8085 173.251 78.0105 172.442 78.8368C171.634 79.6631 171.071 79.6279 167.783 78.3973C164.496 77.1666 159.045 74.8986 155.037 74.4063C151.046 73.9316 147.213 73.4041 142.326 73.7206C137.438 74.0371 133.588 74.5469 133.254 73.2811C132.919 72.0152 133.904 64.086 135.187 61.6598C136.453 59.2335 142.15 54.9613 146 52.7636C149.833 50.5659 157.322 47.7353 158.184 46.6101C159.045 45.4849 159.397 44.5003 159.098 43.4103C158.817 42.3202 158.026 41.6873 158.026 41.6873C158.026 41.6873 158.36 43.3575 157.41 44.5531C156.461 45.7486 156.039 46.2409 154.017 46.1178C151.995 45.9948 144.611 44.8168 142.572 44.852C140.515 44.8871 137.315 45.0278 136.664 44.9926C136.014 44.9575 135.574 44.7113 135.891 43.4806C136.207 42.2499 136.313 41.6346 136.735 39.3666C137.139 37.081 136.471 35.4459 137.508 33.7757Z" fill="#FCC500"/>
<path fill-rule="evenodd" clip-rule="evenodd" d="M205.936 59.9015C205.936 59.9015 206.27 61.3783 206.815 62.275C207.36 63.1892 207.483 64.1562 207.483 64.1562L204.301 63.6991C204.301 63.6991 204.564 63.3826 204.635 63.2419C204.705 63.1013 205.039 62.3629 205.145 61.7651C205.233 61.1673 205.936 59.9015 205.936 59.9015ZM199.343 73.7556C199.343 73.7556 200.222 74.3182 202.367 75.461C204.529 76.6038 204.934 76.6214 204.934 76.6214C204.934 76.6214 203.07 80.1025 202.068 82.7221C201.066 85.3593 201.927 87.5043 207.395 87.8735C212.863 88.2427 221.847 89.0514 222.269 87.3812C222.691 85.711 222.251 83.1792 222.251 81.8782C222.234 80.5772 221.618 79.3289 221.618 79.3289C221.618 79.3289 221.566 78.7311 223.043 74.9336C224.537 71.136 225.451 69.5009 225.187 67.4791C224.924 65.4572 222.322 57.5807 220.845 52.6931C219.35 47.7879 218.823 46.6627 218.893 45.766C218.964 44.8694 217.364 42.8651 215.518 43.2343C213.654 43.6035 210.384 45.4847 207.413 45.7836C204.441 46.0825 202.842 45.766 202.226 45.8364C201.611 45.8891 200.38 47.5066 197.163 49.8801C193.945 52.2536 188.724 57.1939 187.089 58.6884C185.454 60.1828 184.68 61.2201 184.557 62.9079C184.434 64.5957 184.61 66.1253 183.924 67.2153C183.256 68.3054 182.992 67.6021 182.482 70.5558C181.972 73.5271 181.181 77.8697 180.724 79.4696C180.267 81.0695 181.427 82.5639 184.047 82.7397C186.684 82.9155 194.016 84.0231 195.158 83.6891C196.301 83.3726 198.112 80.7003 198.341 78.8015C198.604 77.0082 199.343 73.7556 199.343 73.7556Z" fill="#0D0A06"/>
<path fill-rule="evenodd" clip-rule="evenodd" d="M206.111 57.2284C205.443 57.246 204.863 58.7756 204.107 60.3755C203.351 61.9754 202.788 63.2588 202.718 64.3489C202.648 65.4389 203.65 64.6654 204.652 64.9115C205.654 65.1576 208.327 65.9136 208.643 65.6148C208.942 65.3335 208.731 64.8412 208.766 63.8742C208.801 62.9072 208.362 62.3446 207.676 60.8326C206.99 59.3206 206.111 57.2284 206.111 57.2284ZM205.9 47.5587C206.568 47.4883 207.395 47.3301 208.362 47.0664C212.37 45.9939 214.92 44.816 215.992 44.8863C217.065 44.9566 217.733 45.3434 217.75 46.5741C217.768 47.8048 218.225 49.5805 219.034 51.7782C219.842 53.9583 220.739 57.2988 221.812 60.8502C222.884 64.4016 224.361 66.1598 223.728 68.7267C223.113 71.2935 220.968 76.4449 220.704 77.7459C220.44 79.0293 218.506 78.8184 218.506 78.8184C218.506 78.8184 220.845 79.504 220.932 80.7172C221.02 81.9479 221.284 85.6927 221.249 86.2201C221.214 86.73 220.915 87.2399 215.869 87.2399C210.823 87.2399 207.43 86.5718 205.584 86.3608C203.738 86.1498 202.894 85.5696 202.964 84.7081C203.035 83.8466 205.092 79.5568 205.795 78.3788C206.498 77.2009 206.779 75.6537 206.779 75.6537C206.779 75.6537 204.951 75.7944 202.912 74.5109C200.872 73.2451 200.099 72.4539 199.466 72.7528C198.833 73.0517 198.622 73.4385 197.848 75.6537C197.075 77.869 196.442 81.9127 194.824 82.3171C193.207 82.7214 187.774 81.8424 185.77 81.6138C183.765 81.3853 181.638 81.1567 182.5 77.9041C183.343 74.6516 184.644 70.1332 184.697 69.2717C184.75 68.4102 186.227 68.9904 186.227 68.9904C186.227 68.9904 186.772 68.2168 185.91 67.0916C185.031 65.9664 185.858 64.1379 186.614 62.2743C187.352 60.4107 188.899 58.6877 192.292 55.7868C195.686 52.8858 199.694 50.0201 200.731 48.9652C202.999 46.6796 202.947 47.8927 205.9 47.5587Z" fill="#FCC500"/>
<path fill-rule="evenodd" clip-rule="evenodd" d="M114.425 0.0927734H56.8633L67.1132 28.6801H114.425H157.745L167.995 0.0927734H114.425Z" fill="#0D0A06"/>
<path fill-rule="evenodd" clip-rule="evenodd" d="M59.2356 1.74609L68.3076 27.0281H156.549L165.621 1.74609H59.2356Z" fill="#E41B15"/>
<path d="M140.748 16.5625L145.724 16.5097L144.511 8.91457H144.001L140.748 16.5625ZM133.909 21.7314L141.821 6.29494H147.535L151.191 21.872H146.779L146.075 19.1118H139.746L138.427 21.6962L133.909 21.7314ZM128.758 6.20703H133.487C133.487 6.20703 132.872 16.791 132.801 18.0041C132.731 19.2173 130.885 21.9248 127.457 22.0479C124.028 22.1885 122.516 20.36 122.516 20.36L125.259 17.7932C125.259 17.7932 125.452 19.1821 126.771 18.936C128.09 18.7074 128.107 18.092 128.213 16.1054L128.758 6.20703ZM108.609 21.7138L108.064 11.7627L116.222 21.7841H120.74L121.004 6.3301H116.345L116.539 16.8086L108.099 6.40043H103.581L104.319 21.7314H108.609V21.7138ZM100.276 21.6787H95.7398L94.6321 6.36526H99.1681L100.276 21.6787ZM90.2016 6.3301L92.118 21.8896H87.5644L78.0529 11.6748L79.7407 21.8896H75.6442L72.6027 6.48833H77.3145L87.2304 17.2657L85.7711 6.34768H90.2016V6.3301Z" fill="white"/>
</svg>
