<svg width="176" height="148" viewBox="0 0 176 148" fill="none" xmlns="http://www.w3.org/2000/svg">
<path d="M87.8092 10.7617C81.7076 10.7687 75.4962 11.6197 69.3549 13.4291C66.3836 14.3011 63.5713 15.4302 60.8478 16.6622L87.8092 71.8194L87.8092 71.8218L114.768 16.6622C112.045 15.4326 109.235 14.3011 106.264 13.4291C100.118 11.6197 93.9178 10.7687 87.8092 10.7617ZM78.4558 31.0979C76.083 31.0979 74.1637 29.1716 74.1637 26.8058C74.1637 24.4329 76.0853 22.5113 78.4558 22.5113C80.8263 22.5113 82.7526 24.4353 82.7526 26.8058C82.7526 29.1739 80.8286 31.0979 78.4558 31.0979ZM85.8735 52.5983C84.1506 52.5983 82.7526 51.198 82.7526 49.4798C82.7526 47.7545 84.1506 46.3565 85.8735 46.3565C87.5965 46.3565 88.9968 47.7568 88.9968 49.4798C88.9968 51.198 87.5965 52.5983 85.8735 52.5983ZM93.1814 40.5355C89.1441 40.5355 85.8735 37.2649 85.8735 33.2253C85.8735 29.195 89.1441 25.9221 93.1814 25.9221C97.2211 25.9221 100.492 29.188 100.492 33.2253C100.487 37.2649 97.2164 40.5355 93.1814 40.5355Z" fill="#BD9400"/>
<path d="M59.3688 14.0806C59.3688 14.0806 59.3688 14.0759 59.3688 14.0806C60.1169 13.6411 71.1278 7.44833 87.8101 7.41326C104.497 7.45067 115.506 13.6411 116.251 14.0759L116.254 14.0806L120.249 7.74522C119.417 7.26131 106.804 0.0609945 87.8101 0.000214248C68.8181 0.0563222 56.2058 7.25897 55.3736 7.74523L59.3688 14.0806Z" fill="#BD9400"/>
<path d="M144.76 38.9487C141.182 34.0058 136.857 29.4677 131.795 25.5476C129.349 23.6489 126.787 22.0296 124.194 20.5426L95.2548 74.6884L95.2529 74.6898L155.756 64.2606C155.159 61.3327 154.431 58.3921 153.399 55.4726C151.269 49.4303 148.329 43.9056 144.76 38.9487ZM122.796 43.2688C121.407 41.3449 121.846 38.6612 123.764 37.2764C125.688 35.8875 128.371 36.3207 129.758 38.2427C131.146 40.1646 130.713 42.8526 128.791 44.2402C126.871 45.6264 124.185 45.1926 122.796 43.2688ZM109.706 61.8681C108.697 60.4712 109.015 58.518 110.408 57.5123C111.806 56.5024 113.758 56.8175 114.767 58.2145C115.775 59.6114 115.46 61.5664 114.063 62.5749C112.669 63.5807 110.714 63.265 109.706 61.8681ZM123.764 60.7323C121.401 57.4589 122.138 52.8928 125.413 50.5282C128.681 48.1691 133.249 48.905 135.612 52.1784C137.977 55.4537 137.243 60.0171 133.97 62.3803C130.692 64.7411 126.126 64.0038 123.764 60.7323Z" fill="#BD9400"/>
<path d="M125.421 17.8322C125.421 17.8322 125.425 17.8294 125.421 17.8322C126.215 18.1814 137.681 23.484 147.475 36.9893C157.212 50.5407 158.637 63.0898 158.721 63.949L158.718 63.9536L166.193 63.4845C166.099 62.5265 164.554 48.086 153.485 32.6501C142.323 17.2845 129.1 11.2747 128.219 10.8845L125.421 17.8322Z" fill="#BD9400"/>
<path d="M31.5141 38.9487C35.0913 34.0058 39.4171 29.4677 44.4789 25.5476C46.9251 23.6489 49.4868 22.0296 52.0799 20.5426L81.0189 74.6884L81.0208 74.6898L20.5179 64.2606C21.1151 61.3327 21.8425 58.3921 22.8747 55.4726C25.0052 49.4303 27.9442 43.9056 31.5141 38.9487ZM53.4774 43.2688C54.8663 41.3449 54.4279 38.6612 52.5098 37.2764C50.5859 35.8875 47.903 36.3207 46.5155 38.2427C45.1279 40.1646 45.5603 42.8526 47.4823 44.2402C49.4024 45.6264 52.0885 45.1926 53.4774 43.2688ZM66.5677 61.8681C67.5762 60.4712 67.2592 58.518 65.866 57.5123C64.4672 56.5024 62.5154 56.8175 61.5069 58.2145C60.4984 59.6114 60.8141 61.5664 62.2111 62.5749C63.6042 63.5807 65.5592 63.265 66.5677 61.8681ZM52.5097 60.7323C54.8729 57.4589 54.1356 52.8928 50.8603 50.5282C47.5926 48.1691 43.0246 48.905 40.6614 52.1784C38.2968 55.4537 39.0304 60.0171 42.3038 62.3803C45.5818 64.7411 50.1479 64.0038 52.5097 60.7323Z" fill="#BD9400"/>
<path d="M50.8524 17.8322C50.8524 17.8322 50.8486 17.8294 50.8524 17.8322C50.0582 18.1814 38.592 23.484 28.7987 36.9893C19.0615 50.5407 17.6368 63.0898 17.5528 63.949L17.5553 63.9536L10.0801 63.4845C10.1749 62.5265 11.7194 48.086 22.7884 32.6501C33.9507 17.2845 47.173 11.2747 48.0544 10.8845L50.8524 17.8322Z" fill="#BD9400"/>
<path d="M20.4296 109.962C18.7198 104.105 17.7888 97.9046 17.7974 91.5023C17.7982 88.4057 18.0905 85.3893 18.5066 82.4292L79.0212 92.7838L79.0234 92.7831L33.6764 134.172C31.7302 131.904 29.8539 129.526 28.1812 126.92C24.7157 121.531 22.1549 115.821 20.4296 109.962ZM37.313 95.2647C36.6454 92.9877 34.2569 91.6879 31.9867 92.3535C29.7097 93.021 28.4063 95.4057 29.0732 97.6804C29.7401 99.9552 32.1283 101.262 34.4031 100.595C36.6756 99.9292 37.9806 97.5417 37.313 95.2647ZM60.0319 96.3339C59.5471 94.6806 57.8101 93.733 56.1612 94.2164C54.5056 94.7018 53.5574 96.4366 54.0422 98.09C54.5269 99.7433 56.2646 100.693 57.9179 100.208C59.5668 99.725 60.5166 97.9873 60.0319 96.3339ZM50.5122 106.74C49.3764 102.866 45.3178 100.648 41.4413 101.784C37.5738 102.918 35.3532 106.977 36.4891 110.852C37.6256 114.728 41.6797 116.948 45.5539 115.812C49.4291 114.671 51.6474 110.612 50.5122 106.74Z" fill="#434343"/>
<path d="M15.6126 81.7362C15.6126 81.7362 15.6081 81.7375 15.6126 81.7362C15.4014 82.5777 12.5565 94.8861 17.2162 110.904C21.9468 126.907 30.9843 135.729 31.6113 136.322L31.6165 136.323L26.661 141.94C25.9625 141.277 15.5047 131.2 10.1026 112.99C4.81327 94.7493 8.1767 80.6201 8.40917 79.6847L15.6126 81.7362Z" fill="#434343"/>
<path d="M155.302 109.962C157.012 104.105 157.943 97.9051 157.934 91.5028C157.933 88.4062 157.641 85.3897 157.225 82.4296L96.7105 92.7843L96.7083 92.7836L142.055 134.172C144.001 131.905 145.878 129.527 147.551 126.921C151.016 121.532 153.577 115.822 155.302 109.962ZM138.419 95.2652C139.086 92.9882 141.475 91.6883 143.745 92.3539C146.022 93.0215 147.325 95.4062 146.658 97.6809C145.992 99.9557 143.603 101.263 141.329 100.596C139.056 99.9297 137.751 97.5422 138.419 95.2652ZM115.7 96.3344C116.185 94.6811 117.922 93.7335 119.57 94.2169C121.226 94.7023 122.174 96.4371 121.69 98.0905C121.205 99.7438 119.467 100.694 117.814 100.209C116.165 99.7255 115.215 97.9878 115.7 96.3344ZM125.219 106.741C126.355 102.867 130.414 100.648 134.29 101.785C138.158 102.919 140.378 106.978 139.243 110.852C138.106 114.729 134.052 116.948 130.178 115.812C126.303 114.671 124.084 110.613 125.219 106.741Z" fill="#434343"/>
<path d="M160.119 81.7367C160.119 81.7367 160.124 81.738 160.119 81.7367C160.33 82.5782 163.175 94.8866 158.515 110.905C153.785 126.907 144.747 135.73 144.12 136.323L144.115 136.324L149.071 141.94C149.769 141.278 160.227 131.2 165.629 112.99C170.918 94.7498 167.555 80.6206 167.323 79.6852L160.119 81.7367Z" fill="#434343"/>
</svg>
