<svg width="227" height="270" viewBox="0 0 227 270" fill="none" xmlns="http://www.w3.org/2000/svg">
<path d="M140.928 124.647C140.928 124.647 162.303 136.701 195.242 127.469C195.242 127.469 196.334 147.439 203.948 156.884C203.948 156.884 160.584 157.223 138.143 139.009C138.131 139.009 137.265 137.466 140.928 124.647Z" fill="#020203"/>
<path d="M140.414 126.453C140.414 126.453 168.574 139.26 194.239 129.25C194.239 129.25 194.59 146.008 199.934 155.391C199.934 155.391 158.552 153.986 138.081 137.291C138.081 137.291 138.469 132.75 140.414 126.453Z" fill="#1B1B1A"/>
<path d="M140.414 126.453C140.414 126.453 166.342 138.733 194.552 128.811C194.552 128.811 189.999 134.732 189.936 142.534C189.936 142.534 182.009 146.234 165.426 143.964C165.426 143.964 141.994 140.038 138.482 134.468C138.482 134.468 138.996 131.822 140.414 126.453Z" fill="#282727"/>
<path d="M139.987 128.109L140.413 126.453C147.024 129.049 172.952 136.413 194.552 128.811C194.552 128.811 194.439 128.962 194.238 129.25L192.031 130.906C192.043 130.906 173.717 138.959 139.987 128.109Z" fill="#808386"/>
<path d="M197.588 149.947C194.489 140.677 194.251 129.25 194.251 129.25C191.328 129.827 190.049 130.141 187.954 130.668C182.51 139.599 186.123 150.913 187.942 154.35C191.416 154.777 194.326 155.04 196.421 155.19C196.91 153.547 197.287 151.791 197.588 149.947Z" fill="#020203"/>
<path d="M188.468 142.32C188.468 142.32 186.047 137.303 191.704 128.021C191.704 128.021 196.923 121.498 198.139 107.926C198.139 107.926 198.039 104.301 202.542 104.514C202.542 104.514 219.652 105.793 212.05 122.74L214.634 122.853C214.634 122.853 221.583 125.8 226.199 129.664C226.199 129.664 229.022 135.459 223.365 140.589C223.365 140.589 226.199 141.819 225.723 143.863C225.723 143.863 224.907 150.298 220.931 152.569C220.931 152.569 220.429 153.008 219.05 152.782C219.05 152.782 217.87 166.856 203.382 162.139C203.395 162.139 184.642 158.427 188.468 142.32Z" fill="#A05021"/>
<path d="M205.629 126.102C205.629 126.102 210.558 124.208 214.359 124.371C214.359 124.371 223.767 129.338 225.284 130.592C225.284 130.592 225.774 136.952 223.114 138.946L221.12 138.884C221.12 138.884 215.651 134.92 213.13 134.406C213.13 134.406 205.691 133.214 204.55 133.528C204.55 133.528 203.283 129.413 205.629 126.102Z" fill="#FBD394"/>
<path d="M222.675 141.869C222.675 141.869 224.632 143.399 223.553 145.933C223.553 145.933 222.525 150.022 220.054 151.164C220.054 151.164 218.21 151.076 217.231 150.8C217.231 150.8 211.236 146.999 209.718 145.908C209.718 145.908 206.444 144.503 202.656 143.876L201.401 142.622C201.401 142.622 200.573 138.307 204.838 135.208C204.838 135.208 209.015 134.794 213.393 136.049C213.406 136.036 221.672 140.966 222.675 141.869Z" fill="#FBD394"/>
<path d="M213.468 160.07C213.468 160.07 202.204 159.731 197.939 151.452C197.939 151.452 198.278 146.573 201.238 145.381C201.238 145.381 205.553 145.494 209.329 147.489C209.329 147.489 215.864 151.929 217.181 153.208C217.169 153.208 217.081 158.101 213.468 160.07Z" fill="#FBD394"/>
<path d="M209.881 123.442C209.881 123.442 219.327 106.91 200.862 106.358C200.862 106.358 199.545 106.609 199.332 109.406C199.332 109.406 197.613 123.33 193.035 129.438C193.035 129.438 180.316 141.493 194.641 155.592C194.641 155.592 204.299 164.096 213.481 160.07L209.693 159.004C209.693 159.004 202.029 161.914 196.271 152.105C196.271 152.105 195.769 145.908 200.423 144.315L199.884 142.735C199.884 142.735 199.896 136.074 203.584 134.443C203.584 134.443 202.769 132.775 202.957 131.997C202.957 131.997 198.868 132.486 197.902 132.712C197.902 132.712 200.16 130.768 202.882 130.517C202.882 130.517 203.471 126.378 204.901 124.684C204.901 124.684 208.564 123.844 209.881 123.442Z" fill="#FBD394"/>
<path d="M214.359 124.371C214.359 124.371 214.698 131.508 213.117 134.393C213.117 134.393 205.817 133.29 204.537 133.515C204.537 133.515 203.383 128.448 205.629 126.09C205.629 126.102 210.044 124.158 214.359 124.371Z" fill="#EFA884"/>
<path d="M213.406 136.036C213.406 136.036 211.085 144.027 209.731 145.896C209.731 145.896 204.563 144.089 202.668 143.864L201.414 142.609C201.414 142.609 200.523 137.692 204.851 135.196C204.839 135.208 208.94 134.519 213.406 136.036Z" fill="#EFA884"/>
<path d="M209.316 147.476C209.316 147.476 206.03 155.78 203.697 157.261C203.697 157.261 199.093 154.752 197.939 151.44C197.939 151.44 198.065 146.649 201.238 145.369C201.238 145.369 205.541 145.57 209.316 147.476Z" fill="#EFA884"/>
<path d="M200.586 106.434C200.586 106.434 203.396 106.383 202.944 109.519C202.944 109.519 201.414 125.45 193.925 132.261C193.925 132.261 187.804 136.94 187.879 142.045C187.879 142.045 186.776 136.601 192.521 130.216C192.521 130.216 198.002 121.762 199.57 108.077C199.545 108.077 199.52 107.011 200.586 106.434Z" fill="#EFA884"/>
<path d="M201.627 132.16C201.627 132.16 201.477 133.389 202.242 134.067C202.242 134.067 197.3 137.842 198.918 143.663C198.918 143.663 193.675 147.426 195.381 152.819C195.381 152.819 197.275 157.222 204.926 159.167C204.926 159.167 200.21 158.439 196.259 152.092C196.259 152.092 195.945 145.833 200.411 144.302C200.411 144.302 199.131 136.513 203.572 134.43C203.572 134.43 202.719 132.687 202.944 131.984L201.627 132.16Z" fill="#CC7A52"/>
<path d="M201.552 130.781C201.552 130.781 202.192 125.061 203.12 124.045C203.12 124.045 207.648 122.113 210.496 122.213L209.868 123.455C209.868 123.455 206.08 124.396 204.399 125.424C204.399 125.424 203.521 127.431 202.869 130.53C202.869 130.517 202.869 130.517 201.552 130.781Z" fill="#CC7A52"/>
<path d="M204.55 133.527C204.55 133.527 209.831 133.916 213.456 134.481C213.456 134.481 216.203 135.396 221.133 138.884L223.127 138.946C223.127 138.946 217.069 134.431 213.607 133.277C213.607 133.277 207.611 132.16 204.462 133.001L204.55 133.527Z" fill="#CC7A52"/>
<path d="M221.083 150.461C221.083 150.461 218.787 150.436 216.831 149.458L210.145 145.18C210.145 145.18 205.955 142.76 201.402 142.622L202.656 143.876C202.656 143.876 207.749 145.456 209.718 145.908C209.718 145.908 215.037 149.571 217.232 150.8C217.232 150.8 218.938 151.176 220.054 151.164C220.067 151.151 220.368 151.264 221.083 150.461Z" fill="#CC7A52"/>
<path fill-rule="evenodd" clip-rule="evenodd" d="M127.606 234.969C127.606 234.969 127.518 239.936 126.916 241.692C126.314 243.461 124.784 248.804 124.784 248.804L127.142 253.395L128.045 257.961L133.439 258.839C133.439 258.839 136.863 259.717 138.494 260.52C140.125 261.323 142.006 261.486 142.006 261.486C142.006 261.486 143.976 261.084 145.945 262.213C147.914 263.33 150.486 264.459 155.202 264.459C159.919 264.459 162.314 264.459 164.108 263.656C165.902 262.853 167.533 261.172 167.533 261.172L168.31 259.805C168.31 259.805 170.28 259.404 171.133 258.601C171.986 257.798 171.986 256.92 171.986 256.92C171.986 256.92 173.704 254.562 173.227 252.028C172.751 249.507 173.14 250.184 171.684 248.503C170.229 246.822 165.939 245.894 165.939 245.894L159.091 244.138C159.091 244.138 156.394 243.36 154.801 242.394C153.22 241.429 153.433 240.174 153.433 240.174C153.433 240.174 152.706 238.481 153.095 235.445C153.484 232.41 152.33 234.969 152.33 234.969L146.986 234.379L131.081 235.169L128.421 234.065L127.606 234.969Z" fill="#212121"/>
<path fill-rule="evenodd" clip-rule="evenodd" d="M128.12 259.918C134.781 260.783 144.816 263.505 150.699 266.441C150.699 266.441 152.53 267.394 158.087 267.306C163.656 267.218 166.178 266.353 167.57 264.873C168.799 263.568 172.663 261.085 173.052 260.006C173.478 258.802 174.13 255.904 174.181 254.662C174.268 252.655 173.039 250.899 173.039 250.899L173.077 254.587L167.495 259.454L159.969 261.937L141.053 259.328L126.502 256.255L128.12 259.918Z" fill="#020203"/>
<path fill-rule="evenodd" clip-rule="evenodd" d="M126.515 249.055C126.515 249.055 130.692 250.535 133.389 250.096C136.086 249.657 136.086 249.657 136.086 249.657C136.086 249.657 140.614 253.307 145.217 255.477C149.833 257.647 152.518 258.689 157.31 258.689C162.089 258.689 165.751 257.472 165.751 257.472L168.8 255.565C168.8 255.565 170.543 255.302 171.496 254.524C172.45 253.746 173.24 252.53 173.24 252.53C173.24 252.53 173.742 257.886 172.701 259.353C171.772 260.658 166.052 264.76 165.162 265.048C161.336 266.265 155.591 265.224 152.982 264.785C146.923 263.781 138.632 259.215 132.799 259.215C129.149 259.215 128.145 258.362 128.145 258.362L126.239 252.266L125.687 251.426L126.515 249.055Z" fill="#1B1B1A"/>
<path fill-rule="evenodd" clip-rule="evenodd" d="M154.312 244.175C154.312 244.175 158.1 245.743 159.969 246.308C161.838 246.872 164.008 247.349 167.019 248.879C170.017 250.397 171.497 251.012 171.936 251.877C172.375 252.743 172.375 252.743 172.375 252.743C172.375 252.743 172.814 251.739 171.597 250.435C170.38 249.13 162.992 246.559 162.992 246.559C162.992 246.559 159.957 246.308 154.312 244.175Z" fill="#A6A8AB"/>
<path fill-rule="evenodd" clip-rule="evenodd" d="M140.79 244.138C140.79 244.138 137.654 246.133 136.964 247.136C136.274 248.14 136.186 248.654 136.186 248.654C136.186 248.654 137.365 247.876 139.535 246.873C141.705 245.869 146.673 244.176 146.673 244.176C143.06 244.452 141.442 245.656 138.582 246.609C138.569 246.622 138.043 246.484 140.79 244.138Z" fill="#020203"/>
<path fill-rule="evenodd" clip-rule="evenodd" d="M146.999 233.263C146.999 233.263 146.735 239.133 148.178 241.529C149.62 243.925 149.482 244.401 151.652 245.744C153.822 247.086 153.572 246.308 155.955 247.487C158.351 248.666 158.74 249.319 158.74 249.319C158.74 249.319 158.702 248.541 157.134 247.625C155.566 246.709 152.443 246.145 151.05 244.753C149.658 243.36 148.441 241.617 147.914 239.233C147.388 236.838 147.613 232.234 147.613 232.234L147.25 232.109L146.999 233.263Z" fill="#020203"/>
<path fill-rule="evenodd" clip-rule="evenodd" d="M127.732 236.637C127.732 236.637 126.264 241.391 125.737 242.532C125.21 243.661 124.822 248.415 124.822 248.415L125.913 249.482C125.913 249.482 126.778 243.561 127.255 241.04C127.732 238.531 129.024 235.771 129.024 235.771L131.683 234.743L128.409 233.213L127.932 235.157L127.732 236.637Z" fill="#020203"/>
<path fill-rule="evenodd" clip-rule="evenodd" d="M173.228 252.529C173.228 252.529 172.488 254.562 171.032 255.113C169.565 255.653 168.8 255.578 168.8 255.578C168.8 255.578 168.536 256.757 165.538 257.923C162.54 259.102 156.883 259.93 150.273 258.224C143.662 256.531 135.923 250.359 135.923 250.359C135.923 250.359 132.674 251.463 128.961 250.573C125.248 249.695 124.872 248.528 124.872 248.528L125.148 247.587C125.148 247.587 126.176 248.929 129.877 249.281C133.577 249.632 136.399 249.23 136.399 249.23C136.399 249.23 141.316 253.32 146.748 255.628C152.179 257.936 156.62 259.102 163.105 257.635C169.59 256.155 169.013 253.508 169.013 253.508L169.389 254.398C169.389 254.398 170.343 254.7 171.359 254.198C172.362 253.696 173.052 251.789 173.052 251.789L173.228 252.529Z" fill="#020203"/>
<path fill-rule="evenodd" clip-rule="evenodd" d="M153.697 232.522C153.697 232.522 153.346 237.352 153.358 238.443C153.396 243.837 165.325 244.828 169 246.847C171.245 248.077 171.948 248.729 172.7 249.695C173.453 250.661 173.24 252.028 173.24 252.028L173.064 252.354C173.064 252.354 173.202 250.748 171.158 249.13C169.113 247.525 159.329 244.74 159.329 244.74L154.462 243.247C151.401 241.178 151.602 235.433 152.643 231.97L153.697 232.522Z" fill="#020203"/>
<path fill-rule="evenodd" clip-rule="evenodd" d="M156.482 243.925C153.22 242.984 152.066 241.303 152.33 234.981L151.514 235.094C151.514 240.061 150.185 242.545 156.482 243.925Z" fill="#A6A8AB"/>
<path fill-rule="evenodd" clip-rule="evenodd" d="M88.2563 236.524C88.2563 236.524 85.1204 242.783 84.7817 245.919C84.4305 249.055 84.4305 250.698 84.4305 250.698C84.4305 250.698 82.7748 252.442 82.2605 254.788C81.7336 257.133 81.3071 260.445 83.0382 263.054C84.7817 265.663 87.5664 268.448 95.3937 269.138C100.988 269.639 104.977 269.062 110.546 268.824C113.231 268.711 118.875 269.213 119.942 269.175C121.008 269.138 123.404 268.372 124.269 267.695C125.135 267.018 126.954 266.227 127.694 262.753C128.434 259.278 128.308 256.97 127.092 253.922C125.875 250.874 123.705 249.181 123.705 249.181C123.705 249.181 124.319 245.882 123.617 242.482C122.927 239.095 123.354 239.773 122.438 237.791C121.485 235.709 116.028 236.148 111.738 235.144C106.859 234.003 104.626 234.065 104.626 234.065L89.1219 234.881L88.2563 236.524Z" fill="#020203"/>
<path fill-rule="evenodd" clip-rule="evenodd" d="M105.955 234.969C105.955 234.969 113.482 236.361 116.517 236.361C119.565 236.361 122.049 238.155 122.049 238.155C122.049 238.155 121.121 239.798 121.51 240.801C121.898 241.805 122.852 243.373 122.94 244.84C123.027 246.321 122.902 248.754 122.902 248.754C122.902 248.754 119.076 244.966 118.123 244.966C117.17 244.966 119.553 247.011 121.597 249.005C123.642 250.999 125.122 252.53 125.812 254.349C126.502 256.18 126.678 257.823 126.678 257.823C126.678 257.823 123.943 259.216 121.497 259.517C119.064 259.818 115.15 259.241 112.415 259.328L99.0188 259.742C95.2808 259.855 88.7079 259.655 85.3587 256.519C82.0096 253.383 86.6256 250.034 86.6256 250.034C86.6256 250.034 92.6968 246.521 95.494 245.342C98.2913 244.151 98.2913 244.151 98.2913 244.151L87.7546 247.287C87.7546 247.287 88.9211 241.228 90.1379 238.631C91.3546 236.035 91.1414 235.997 91.1414 235.997L104.601 234.442L105.955 234.969Z" fill="#212121"/>
<path fill-rule="evenodd" clip-rule="evenodd" d="M89.2474 255.578C89.2474 255.578 92.6342 254.311 97.5137 255.402C102.381 256.494 102.644 256.745 102.644 256.745C102.644 256.745 95.9457 251.752 89.2474 255.578Z" fill="#1B1B1A"/>
<path fill-rule="evenodd" clip-rule="evenodd" d="M107.912 236.487C107.912 236.487 106.871 242.144 107.473 244.489C108.088 246.835 108.251 247.876 108.251 247.876C108.251 247.876 108.188 245.719 107.987 244.954C107.787 244.188 107.21 244.276 107.774 240.438C108.339 236.599 108.439 235.182 108.439 235.182L107.887 235.307L107.912 236.487Z" fill="#020203"/>
<path d="M87.4165 249.544C87.4165 249.544 93.1615 245.969 99.1448 244.226C99.1448 244.226 93.6883 244.665 88.9594 247.111L90.0256 242.833H88.7085C88.7085 242.833 87.5043 247.587 87.4165 249.544Z" fill="#808386"/>
<path d="M122.664 248.353C122.664 248.353 120.882 243.599 114.849 242.896C114.849 242.896 119.44 244.778 122.664 248.353Z" fill="#3C3C3B"/>
<path fill-rule="evenodd" clip-rule="evenodd" d="M84.9326 257.585C84.9326 257.585 88.1564 260.508 96.4227 260.859C105.078 261.223 109.004 260.432 117.032 260.859C121.987 261.122 127.029 259.115 127.029 259.115C127.029 259.115 127.807 261.373 125.988 264.07C124.157 266.767 119.553 267.457 119.553 267.457C119.553 267.457 114.435 268.109 111.613 268.134L100.675 268.235C95.5446 268.285 87.4539 265.801 87.4539 265.801C87.4539 265.801 84.2804 262.414 84.9326 257.585Z" fill="#1B1B1A"/>
<path d="M86.2371 252.141H86.4253V252.028L86.2371 252.141C86.2371 252.141 81.32 259.818 88.6706 265.086C88.6706 265.086 85.2587 260.508 86.2371 252.141Z" fill="#808386"/>
<path d="M87.4699 119.861L77.3458 134.409L86.2414 140.599L96.3655 126.051L87.4699 119.861Z" fill="black"/>
<path d="M87.5912 107.461L92.1822 112.692C92.1822 112.692 90.978 134.254 70.7451 141.367L63.5826 138.707L87.5912 107.461Z" fill="#4A2310"/>
<path d="M88.9588 110.723L90.9658 113.068C90.9658 113.068 90.9658 131.896 71.0464 140.338L67.0701 139.071L88.9588 110.723Z" fill="#E8BB47"/>
<path d="M69.5787 118.412C62.9055 127.004 60.1459 136.036 63.4198 138.582C66.6937 141.128 74.7593 136.224 81.4451 127.619C88.1183 119.026 90.8779 109.995 87.604 107.449C84.3176 104.915 76.252 109.819 69.5787 118.412Z" fill="#4A2310"/>
<path d="M70.7831 119.428C64.6743 127.305 61.9147 135.383 64.6241 137.49C67.3336 139.598 74.4835 134.919 80.6048 127.054C86.7136 119.189 89.4732 111.099 86.7637 108.991C84.0543 106.884 76.8919 111.55 70.7831 119.428Z" fill="#E59248"/>
<path d="M64.6242 137.491C62.2158 135.622 64.1225 129.049 68.8514 122.087C68.4626 122.815 61.8771 134.644 65.4772 136.864C69.0396 139.071 79.0118 128.873 79.7519 128.096C73.8438 135.321 67.2082 139.498 64.6242 137.491Z" fill="#FDF188"/>
<path d="M86.0613 109.744C83.5776 108.114 76.2521 113.545 75.7253 113.946C80.3539 109.569 84.7693 107.436 86.7637 108.992C88.6829 110.484 87.855 114.962 85.0578 120.231C85.3337 119.516 88.5324 111.362 86.0613 109.744Z" fill="#FDF188"/>
<path d="M90.9531 113.595L89.3977 112.089C89.3977 112.089 88.9461 120.381 80.9809 128.208C80.9809 128.208 88.9712 118.662 88.9712 110.747L90.9657 113.08L90.9531 113.595Z" fill="#FDF188"/>
<path d="M71.4854 140.163L68.5878 139.26C68.5878 139.26 75.3237 136.412 78.2715 131.32C78.2715 131.32 72.4136 137.805 66.9069 139.109L71.0589 140.338L71.4854 140.163Z" fill="#FDF188"/>
<path d="M36.4757 108.113L52.1302 88.2567L81.2692 116.041C81.2692 116.041 79.7514 121.234 77.5563 123.868C75.0726 126.854 70.1429 130.24 70.1429 130.24L36.4757 108.113Z" fill="#2A1C47"/>
<path d="M39.0344 107.8L52.3808 90.5775L80.5163 117.007C80.5163 117.007 80.1274 120.457 77.0919 124.157C74.533 127.28 70.958 129.212 70.958 129.212L39.0344 107.8Z" fill="#714A98"/>
<path d="M60.9233 98.9694L61.8139 99.8098C62.002 102.369 61.3372 105.981 59.857 109.769C62.8675 107.675 65.0627 105.417 65.8905 103.636L66.4174 104.137C66.4174 104.162 66.4299 104.188 66.4299 104.213C65.2006 106.307 62.6794 108.753 59.3804 110.911C59.3553 110.961 59.3302 111.024 59.3177 111.074C58.0131 114.059 56.4452 116.593 54.8647 118.412L54.3002 118.036C55.68 116.468 57.0974 114.235 58.3142 111.576C58.0382 111.739 57.7497 111.914 57.4612 112.078C54.8396 113.57 52.2556 114.611 50.0228 115.163L49.2576 114.649C51.5029 114.172 54.2751 113.094 57.1225 111.475C57.7121 111.149 58.2765 110.798 58.8159 110.447C60.71 105.981 61.4752 101.729 60.986 99.3206C61.0236 99.2579 61.0612 99.1951 61.0863 99.1324L60.9233 98.9694Z" fill="#BFA1CD"/>
<path d="M67.2202 104.89C67.2955 107.449 66.6056 110.898 65.1756 114.511C68.0606 112.554 70.2307 110.447 71.2467 108.691L71.7861 109.205C70.4314 111.262 67.9101 113.595 64.6989 115.652C64.6989 115.665 64.6989 115.665 64.6864 115.677C63.5324 118.337 62.1526 120.632 60.7602 122.388L60.2083 121.999C61.3999 120.507 62.5916 118.55 63.6453 116.279C63.4696 116.38 63.294 116.493 63.1184 116.593C60.7853 117.923 58.4898 118.876 56.4452 119.466L55.7177 118.976C57.8124 118.437 60.2585 117.433 62.7797 115.991C63.2564 115.715 63.708 115.439 64.1596 115.163C66.016 110.835 66.8188 106.696 66.4425 104.212C66.455 104.2 66.455 104.187 66.4676 104.175L67.2202 104.89Z" fill="#BFA1CD"/>
<path d="M62.8297 123.756L62.1022 123.266C64.0214 122.689 66.1914 121.774 68.4116 120.507C68.813 120.281 69.2019 120.043 69.5782 119.804C71.3343 115.64 72.112 111.689 71.8235 109.217L72.5887 109.932C72.6138 112.429 71.9364 115.715 70.5942 119.152C73.3162 117.333 75.4361 115.376 76.5776 113.683L77.6689 114.699C77.8194 117.095 77.2298 120.369 75.9504 123.856C76.9413 123.204 77.857 122.539 78.6849 121.861C78.3588 122.426 77.9699 123.003 77.5184 123.605C76.8912 124.057 76.2389 124.508 75.5365 124.935C75.411 125.236 75.2856 125.537 75.1601 125.838C75.0849 126.026 74.9971 126.202 74.9093 126.377C74.4828 126.753 74.0563 127.105 73.6424 127.406C73.9434 126.804 74.2445 126.189 74.5204 125.549C74.5204 125.537 74.5204 125.537 74.533 125.524C74.4828 125.549 74.4326 125.587 74.395 125.612C72.6138 126.628 70.8451 127.431 69.1894 128.02L68.4869 127.544C70.2179 126.954 72.112 126.114 74.0563 125.01C74.3699 124.834 74.6835 124.646 74.9845 124.471C76.565 120.482 77.2424 116.744 76.9163 114.423C75.4486 116.342 73.0904 118.424 70.1552 120.268C70.1301 120.331 70.105 120.394 70.08 120.457C69.089 122.739 67.935 124.734 66.7433 126.377L66.1789 126.001C67.1949 124.596 68.1984 122.865 69.1015 120.908C68.9887 120.971 68.8758 121.046 68.7629 121.109C66.7057 122.275 64.6862 123.153 62.8297 123.756Z" fill="#BFA1CD"/>
<path d="M43.5879 110.848L42.7725 110.309C45.1433 109.957 48.2792 108.816 51.5029 106.972C52.243 106.546 52.958 106.107 53.6353 105.655C55.404 101.227 56.1566 96.4479 55.6674 94.027L56.3072 94.6291C56.7336 97.1002 56.1692 100.888 54.6639 104.953C57.7748 102.72 59.9448 100.336 60.4967 98.5552L60.5971 98.6556L60.9358 98.9692C60.9734 99.0821 60.9985 99.2075 61.0236 99.333C59.9448 101.415 57.4863 103.886 54.2124 106.107C54.1246 106.332 54.0242 106.558 53.9239 106.784C52.519 110.008 50.8005 112.692 49.1071 114.548L48.5301 114.16C50.1106 112.491 51.7789 109.92 53.1587 106.784C52.7322 107.047 52.2932 107.311 51.8541 107.574C48.8938 109.255 46.0088 110.359 43.5879 110.848Z" fill="#BFA1CD"/>
<path d="M60.923 98.5929L61.8137 99.4334C62.0018 101.992 61.337 105.605 59.8568 109.393C62.8673 107.298 65.0625 105.053 65.8903 103.259L66.4172 103.761C66.4172 103.786 66.4297 103.811 66.4297 103.836C65.2004 105.931 62.6792 108.377 59.3802 110.535C59.3551 110.585 59.33 110.647 59.3175 110.698C57.9627 113.821 56.307 116.443 54.6638 118.274L54.1118 117.91C55.5544 116.33 57.0471 113.997 58.3391 111.212C58.0631 111.375 57.7746 111.551 57.4861 111.714C54.7014 113.307 51.9669 114.373 49.6337 114.9L48.8435 114.373C51.1641 113.959 54.1118 112.83 57.1349 111.099C57.7244 110.76 58.2889 110.422 58.8283 110.07C60.7224 105.605 61.4875 101.353 60.9983 98.9442C61.0359 98.8814 61.0736 98.8187 61.0987 98.756L60.923 98.5929ZM66.4674 103.811C66.4548 103.824 66.4548 103.836 66.4423 103.849C66.8186 106.332 66.0158 110.459 64.1593 114.799C63.7077 115.075 63.2562 115.364 62.7795 115.627C60.0952 117.158 57.4735 118.211 55.3035 118.726L56.0561 119.227C58.2011 118.65 60.6471 117.647 63.1182 116.229C63.2938 116.129 63.4694 116.016 63.645 115.916C62.5286 118.312 61.2617 120.356 60.0074 121.874L60.5718 122.25C62.0394 120.457 63.482 118.073 64.6987 115.289C64.6987 115.276 64.7112 115.276 64.7112 115.263C67.9224 113.206 70.4437 110.873 71.7984 108.816L71.259 108.302C70.243 110.058 68.0604 112.178 65.1879 114.122C66.6179 110.509 67.3078 107.06 67.2325 104.501L66.4674 103.811ZM51.8414 107.198C52.293 106.947 52.7195 106.684 53.146 106.408C51.6909 109.682 49.9348 112.353 48.3041 114.009L48.7557 114.31L48.9689 114.298C50.7 112.454 52.4686 109.694 53.9111 106.395C54.0115 106.169 54.0993 105.944 54.1996 105.718C57.4735 103.498 59.9196 101.026 61.0109 98.9442C60.9858 98.8187 60.9607 98.6933 60.923 98.5804L60.5844 98.2668L60.484 98.1665C59.9321 99.9351 57.762 102.331 54.6512 104.564C56.1565 100.5 56.7209 96.7114 56.2944 94.2403L55.6547 93.6382C56.1439 96.0591 55.3913 100.838 53.6226 105.266C52.9453 105.718 52.2303 106.157 51.4902 106.583C48.0532 108.54 44.7292 109.719 42.3082 109.983L42.9981 110.447L43.1487 110.547C45.6574 110.121 48.7306 108.979 51.8414 107.198ZM68.7628 120.733C68.8757 120.67 68.9886 120.595 69.1015 120.532C68.1482 122.602 67.082 124.433 66.0032 125.875L66.5677 126.252C67.8221 124.571 69.0388 122.476 70.0799 120.08C70.105 120.018 70.1301 119.955 70.1552 119.892C73.0904 118.048 75.4612 115.953 76.9162 114.047C77.2549 116.367 76.5776 120.105 74.9845 124.094C74.6835 124.282 74.3699 124.458 74.0563 124.646C71.974 125.825 69.942 126.728 68.1231 127.305L68.8381 127.782C70.5942 127.18 72.4883 126.34 74.4075 125.248C74.4577 125.223 74.5079 125.186 74.5455 125.16C74.5455 125.173 74.5455 125.173 74.5329 125.186C74.1566 126.051 73.7552 126.866 73.3538 127.644C73.7552 127.343 74.1943 127.004 74.6333 126.628C74.8089 126.252 74.9971 125.863 75.1601 125.461C75.2856 125.16 75.411 124.859 75.5364 124.558C76.4396 124.006 77.2926 123.417 78.0703 122.827C78.4591 122.25 78.7853 121.698 79.0612 121.172C78.1455 121.949 77.0919 122.727 75.9504 123.48C77.2298 120.005 77.8068 116.731 77.6689 114.323L76.5776 113.307C75.4361 115 73.3162 116.969 70.5942 118.776C71.9364 115.339 72.6138 112.052 72.5887 109.556L71.8235 108.841C72.1246 111.312 71.3343 115.263 69.5782 119.428C69.2019 119.666 68.813 119.905 68.4116 120.13C66.0409 121.485 63.7328 122.451 61.7258 123.015L62.4534 123.505C64.4102 122.903 66.5677 121.974 68.7628 120.733Z" fill="#2A1C47"/>
<path d="M78.0449 123.241L75.7243 117.358L69.1012 116.468L66.467 110.171L59.8565 109.405L57.5109 103.171L50.6746 101.992L50.4362 101.503L49.2446 103.171H49.9345L52.4056 109.355L59.1415 110.271L61.5499 116.304L68.3486 117.408L70.8448 123.605L76.8783 124.408C76.8783 124.408 77.6184 123.868 78.0449 123.241Z" fill="#4A2310"/>
<path d="M68.738 116.844L71.9993 117.296L75.4112 117.772L76.7032 120.958L77.6942 123.392C77.5311 123.605 77.368 123.818 77.1924 124.032L74.5833 123.668L71.1715 123.191L69.8795 120.005L68.6376 116.957L68.7882 116.982L68.738 116.844Z" fill="#F3C84A"/>
<path d="M47.8651 96.4105L49.1069 99.4963L50.3487 102.532L53.6101 102.983L57.0094 103.46L58.3139 106.646L59.5432 109.694L62.8046 110.146L66.2039 110.61L67.5085 113.796L68.7377 116.844L68.5872 116.819L68.6499 116.97L65.3886 116.518L61.9892 116.041L60.6972 112.855L59.4554 109.807L56.1941 109.356L52.7947 108.891L51.4902 105.705L50.2609 102.657L46.9995 102.206L43.7256 101.754L47.8651 96.4105Z" fill="#F3C84A"/>
<path d="M51.5785 86.5511L54.4887 90.3644C54.4887 90.3644 53.0963 105.567 39.4362 110.058L34.7324 107.988L51.5785 86.5511Z" fill="#4A2310"/>
<path d="M52.406 88.8967L53.6855 90.6152C53.6855 90.6152 53.1712 103.912 39.6742 109.355L37.0651 108.352L52.406 88.8967Z" fill="#E8BB47"/>
<path d="M39.2856 93.814C34.6068 99.7095 32.5245 106.019 34.6318 107.901C36.7392 109.782 42.2459 106.533 46.9372 100.638C51.616 94.7422 53.6982 88.4327 51.5909 86.5512C49.471 84.6696 43.9643 87.9185 39.2856 93.814Z" fill="#4A2310"/>
<path d="M40.0633 94.5537C35.7734 99.9475 33.7162 105.592 35.4598 107.148C37.2033 108.703 42.0954 105.592 46.3853 100.198C50.6753 94.8046 52.7324 89.1599 50.9889 87.6045C49.2453 86.0491 44.3532 89.1599 40.0633 94.5537Z" fill="#E59248"/>
<path d="M35.4598 107.16C33.9043 105.781 35.3594 101.177 38.696 96.3978C38.4201 96.8996 33.7162 105.078 36.0493 106.746C38.3573 108.402 45.2815 101.465 45.7957 100.926C41.6563 105.868 37.1281 108.64 35.4598 107.16Z" fill="#FDF188"/>
<path d="M50.4995 88.1189C48.8814 86.9022 43.8639 90.5398 43.5001 90.8158C46.6988 87.8429 49.6967 86.4506 50.9887 87.6046C52.218 88.7084 51.5532 91.8444 49.5462 95.5071C49.7469 95.0054 52.1051 89.3356 50.4995 88.1189Z" fill="#FDF188"/>
<path d="M53.6478 90.9789L52.6569 89.875C52.6569 89.875 52.1301 95.7204 46.6108 101.039C46.6108 101.039 52.1928 94.5037 52.406 88.9092L53.6729 90.6151L53.6478 90.9789Z" fill="#FDF188"/>
<path d="M39.9634 109.23L38.0568 108.515C38.0568 108.515 42.6227 106.684 44.73 103.159C44.73 103.159 40.6533 107.587 36.9529 108.365L39.6875 109.343L39.9634 109.23Z" fill="#FDF188"/>
<path d="M143.21 121.022C143.21 121.022 147.726 128.912 144.088 130.04C144.088 130.04 146.02 131.22 146.973 133.553C151.176 143.889 165.701 184.919 161.624 226.878C160.621 237.164 139.949 238.405 131.557 235.646C131.557 235.646 103.497 253.558 78.4348 234.642C78.4348 234.642 75.487 232.008 78.3093 225.059C88.5826 199.721 93.3367 132.098 91.844 119.14C91.844 119.14 125.047 117.07 143.21 121.022Z" fill="black"/>
<path d="M157.046 180.955C157.046 180.955 163.117 226.125 155.98 230.503C149.909 234.228 135.308 234.391 131.683 232.51C131.683 232.51 132.435 228.119 130.805 222.864C129.174 217.608 129.299 205.077 129.55 203.697C129.55 203.697 138.82 202.944 143.21 198.065C143.21 198.065 135.446 203.195 128.183 201.828C128.183 201.828 128.058 218.737 129.186 222.751C130.315 226.765 131.193 233.149 127.43 234.78C123.053 236.674 100.123 246.308 83.0884 233.526C83.0884 233.526 78.6981 230.603 81.0814 225.761C86.0362 215.739 95.6196 161.989 95.1053 118.989C95.1053 118.989 126.163 117.66 140.049 120.419C140.049 120.419 147.601 131.182 133.828 131.307C133.828 131.307 136.813 132.348 141.943 131.37C143.913 130.994 145.732 137.817 145.732 137.817C145.732 137.817 153.86 160.534 157.046 180.955Z" fill="black"/>
<path d="M154.161 180.454L89.6487 187.842C89.6487 187.867 89.6361 187.892 89.6361 187.917C92.8222 167.258 95.356 141.631 95.0801 118.965C95.0801 118.965 126.138 117.635 140.024 120.395C140.024 120.395 147.575 131.157 133.802 131.283C133.802 131.283 136.788 132.324 141.918 131.345C143.888 130.969 145.706 137.793 145.706 137.793C145.706 137.793 153.847 160.522 157.046 180.943C157.046 180.943 157.184 181.984 157.397 183.74C157.297 182.912 157.221 182.247 157.159 181.783L154.161 180.454Z" fill="#282727"/>
<path d="M91.3793 187.917C94.5654 167.257 97.0992 141.631 96.8232 118.964C96.8232 118.964 102.794 118.713 110.671 118.651C110.671 118.651 103.735 151.753 101.866 186.637L91.3918 187.842C91.3793 187.867 91.3793 187.892 91.3793 187.917Z" fill="#1B1B1A"/>
<path d="M157.397 183.765C157.184 181.996 157.046 180.968 157.046 180.968C153.847 160.547 145.706 137.817 145.706 137.817C145.706 137.817 143.887 130.994 141.918 131.37C139.07 131.909 136.888 131.834 135.508 131.658C134.68 131.784 133.739 131.872 132.673 131.884C132.673 131.884 135.659 132.925 140.789 131.947C142.758 131.571 144.577 138.394 144.577 138.394C144.577 138.394 152.63 160.898 155.866 181.231L157.158 181.808C157.221 182.272 157.296 182.937 157.397 183.765Z" fill="#808386"/>
<path d="M155.992 230.515C149.921 234.241 135.32 234.404 131.695 232.522C131.695 232.522 132.448 228.132 130.817 222.876C129.187 217.62 129.312 205.089 129.563 203.709C129.563 203.709 138.356 202.994 142.872 198.441C148.052 195.154 150.987 190.952 152.154 189.008C155.792 187.189 157.636 185.722 157.636 185.709C158.953 197.412 161.7 227.003 155.992 230.515Z" fill="#1B1B1A"/>
<path d="M81.0689 225.749C83.2766 221.27 86.4125 208.074 89.1595 191.015C121.46 200.749 145.581 193.737 157.623 185.709C156.231 188.757 152.467 192.483 147.287 195.769C147.287 195.769 134.43 203.019 128.17 201.828C128.17 201.828 128.045 218.737 129.174 222.751C130.303 226.765 131.181 233.149 127.418 234.78C123.04 236.674 100.11 246.308 83.0759 233.526C83.0759 233.513 78.6856 230.59 81.0689 225.749Z" fill="#282727"/>
<path d="M96.2344 118.977C96.2344 118.977 101.641 118.751 108.941 118.676V118.663C101.064 118.713 95.0929 118.977 95.0929 118.977C95.3563 141.63 92.8225 167.27 89.6489 187.929C89.6489 187.904 89.6615 187.879 89.6615 187.854L90.8155 187.716C93.9765 167.094 96.4978 141.555 96.2344 118.977Z" fill="#808386"/>
<path d="M158.89 170.807C159.605 165.263 156.896 164.272 156.469 164.297C156.043 164.322 153.797 165.125 153.797 165.125C145.519 167.47 119.189 173.454 92.7223 163.983C92.7223 163.983 90.6651 163.344 89.9501 162.879C89.2351 162.415 85.4971 170.293 88.6456 174.959C88.6456 174.959 83.8413 184.956 85.9738 187.929C87.5919 190.187 93.7508 191.329 94.4282 191.492C107.273 194.841 134.029 199.03 157.535 184.856C164.823 181.055 158.89 170.807 158.89 170.807Z" fill="#6E150E"/>
<path d="M158.325 173.279C157.146 176.302 155.052 177.205 155.052 177.205C156.858 174.872 157.723 170.833 157.723 170.808C158.087 166.166 156.369 165.527 155.98 165.552C155.754 165.564 154.838 165.803 154.036 166.028C154.036 166.016 154.036 166.016 154.036 166.003C154.036 166.003 153.647 166.129 152.919 166.342C152.756 166.392 152.656 166.417 152.656 166.417C146.371 168.211 119.578 174.734 92.6593 164.762C92.6593 164.762 91.1541 164.272 90.3889 164.285C89.5359 164.31 87.2404 170.707 90.3889 175.374C90.3889 175.374 91.8063 177.029 94.3151 178.81C94.3151 178.81 91.5304 177.682 89.8997 176.339C88.6328 178.923 85.5094 185.96 87.8049 187.842C88.2565 188.206 88.8586 188.544 89.5108 188.858C89.5108 188.871 89.5108 188.896 89.4983 188.908C89.4983 188.908 89.7492 189.008 90.2133 189.172C92.1576 189.974 94.3276 190.476 94.7792 190.589C105.918 193.687 132.761 198.742 156.193 184.643V184.656C156.657 184.43 157.059 184.179 157.422 183.903C161.022 181.106 159.417 175.838 158.325 173.279Z" fill="#E41915"/>
<path d="M146.648 177.017C146.648 177.017 128.485 186.976 111.325 176.264C111.325 176.264 130.278 183.878 146.648 177.017ZM87.8055 187.842C87.8306 187.867 87.8682 187.892 87.9058 187.917C86.7518 186.387 88.533 180.73 88.9219 179.726C89.2982 178.735 89.9003 176.327 89.9003 176.327C88.6333 178.923 85.4974 185.96 87.8055 187.842ZM98.7185 166.743C96.6989 166.166 94.6794 165.514 92.6473 164.762C92.6473 164.762 91.1421 164.272 90.3769 164.285C89.524 164.31 87.2285 170.707 90.3769 175.374C90.3769 175.374 90.6905 175.737 91.2801 176.314C90.2515 175.072 89.2856 171.686 89.4863 168.462C89.687 165.238 90.4647 165.05 92.6975 165.527C94.9303 165.991 98.7185 166.743 98.7185 166.743ZM157.912 174.194C157.912 174.194 157.912 174.182 157.912 174.194C157.912 174.194 160.032 178.56 158.339 183C160.697 180.09 159.304 175.587 158.326 173.279C158.201 173.605 158.063 173.906 157.912 174.194ZM157.736 170.808C158.1 166.166 156.382 165.527 155.993 165.552C155.767 165.564 154.851 165.803 154.049 166.028C154.049 166.016 154.049 166.016 154.049 166.003C154.049 166.003 153.66 166.129 152.932 166.342C152.769 166.392 152.669 166.417 152.669 166.417C151.565 166.731 149.821 167.195 147.564 167.684C147.564 167.684 153.923 166.806 156.281 166.054C156.281 166.054 159.016 169.465 155.077 177.205C156.871 174.859 157.724 170.833 157.736 170.808Z" fill="#FAB52D"/>
<path d="M158.125 173.742C158.25 173.83 158.439 173.956 158.664 174.131C159.103 175.323 159.542 176.841 159.63 178.396C158.89 177.681 157.962 176.791 156.871 175.749C157.297 175.235 157.749 174.583 158.125 173.742ZM157.222 172.689C155.566 170.594 153.823 168.562 152.029 166.593C151.025 166.868 149.658 167.22 147.99 167.583C151.239 170.481 154.048 173.078 156.256 175.172C156.657 174.307 156.984 173.429 157.222 172.689Z" fill="#A21916"/>
<path d="M146.648 177.016C146.648 177.016 129.55 185.22 111.325 176.264C111.325 176.264 130.93 183.087 146.648 177.016Z" fill="#6E150E"/>
<path d="M96.7989 125.751C93.7508 124.459 92.5341 122.728 92.1828 125.387C91.8316 128.046 92.0323 129.201 92.0323 129.201C109.719 135.347 132.448 153.761 147.061 166.744C148.654 166.418 150.072 166.079 151.289 165.778C129.488 142.183 99.5585 126.918 96.7989 125.751Z" fill="black"/>
<path d="M161.324 177.907C161.324 177.907 120.456 137.404 92.1075 127.532C92.1075 127.532 90.6776 125.776 91.0288 123.116C91.38 120.457 93.7633 121.824 96.8114 123.116C99.8595 124.408 138.281 142.86 160.044 170.883C160.032 170.883 164.121 174.834 161.324 177.907Z" fill="#3D2516"/>
<path d="M160.923 176.264C160.923 176.264 120.971 136.476 93.2368 127.193C93.2368 127.193 92.0828 126.378 92.1957 124.635C92.3086 122.891 92.6096 122.515 96.1971 124.058C130.191 138.683 166.693 174.947 160.923 176.264Z" fill="#613A14"/>
<path d="M52.4067 44.6427C52.4067 44.6427 25.6761 32.513 10.423 54.201C10.423 54.201 12.0286 66.8074 20.6586 72.59L23.5938 71.8374C23.5938 71.8374 36.7647 52.6958 52.1182 53.2728C52.1182 53.2602 53.5607 45.6838 52.4067 44.6427Z" fill="black"/>
<path d="M52.8579 46.6245C52.8579 46.6245 28.2472 34.0306 11.953 54.8657C11.953 54.8657 13.7593 65.4902 20.6709 70.6456L22.9287 70.1062C22.9287 70.1062 34.7449 51.6796 52.4189 51.6796L52.5945 50.1367C52.5945 50.1367 40.6529 44.2537 24.6472 54.2008C24.6472 54.2008 34.7449 43.7896 52.7576 48.8071L52.8579 46.6245Z" fill="#333332"/>
<path d="M52.4062 51.6799L52.494 50.9398C32.1356 49.6604 20.6581 70.6585 20.6581 70.6585L22.916 70.1191C22.916 70.1066 34.7322 51.6799 52.4062 51.6799Z" fill="#202121"/>
<path d="M24.6349 54.2137C24.6349 54.2137 41.318 45.5836 52.4945 50.9398L52.5823 50.137C52.5823 50.137 41.2177 44.0659 24.6349 54.2137Z" fill="#808386"/>
<path d="M52.8203 47.3896L52.8579 46.6245C52.8579 46.6245 28.2472 34.0306 11.953 54.8657C11.953 54.8657 13.7593 65.4902 20.6709 70.6456C20.6709 70.6456 14.3238 63.5835 12.9941 54.966C12.9816 54.966 26.3406 35.7365 52.8203 47.3896Z" fill="#808386"/>
<path d="M59.845 42.8617C59.845 42.8617 54.8024 7.18752 16.8704 10.1604C16.8704 10.1604 7.32462 22.1772 7.2619 35.1348L10.4229 37.3802C10.4229 37.3802 39.7249 23.9835 53.3725 46.6248L59.845 42.8617Z" fill="black"/>
<path d="M17.686 12.1543C17.686 12.1543 10.3228 23.7697 9.46985 33.3029L10.7995 35.0214C10.7995 35.0214 40.3148 21.7878 55.1539 45.5832L58.3777 43.7017C58.3777 43.7142 52.3316 9.88389 17.686 12.1543ZM36.4764 21.8004C49.8229 26.3287 57.2487 42.1086 57.2487 42.1086L56.2452 42.1462C49.9859 29.0632 36.4764 21.8004 36.4764 21.8004Z" fill="#333332"/>
<path d="M57.4492 44.2535L57.6499 44.1406C57.4618 43.7141 57.1356 43.0117 56.6841 42.1211L56.245 42.1336C50.2742 29.1383 36.4762 21.8003 36.4762 21.8003C42.8108 27.0436 48.0916 29.3641 55.4924 41.2681L57.4492 44.2535Z" fill="#808386"/>
<path d="M55.1539 45.5962L56.7971 44.6303C41.1928 19.1039 9.48236 33.3034 9.48236 33.3034L10.812 35.0218C10.812 35.0218 40.3273 21.8008 55.1539 45.5962Z" fill="#202121"/>
<path d="M56.8097 38.2332C53.3978 28.7501 43.4632 10.4615 17.686 12.1549C17.686 12.1549 10.3228 23.7703 9.46985 33.3035C9.46985 33.3035 13.0824 20.9103 18.564 13.2838C18.5766 13.2838 42.3217 8.74297 56.8097 38.2332Z" fill="#808386"/>
<path d="M65.5648 44.2665C65.5648 44.2665 58.0762 35.5612 50.9765 42.2846C43.8768 49.008 47.5772 54.2137 47.5772 54.2137C47.5772 54.2137 42.9736 60.0841 50.7131 65.8166C58.4525 71.549 67.4589 60.2096 67.4589 60.2096L65.5648 44.2665Z" fill="black"/>
<path d="M65.8405 46.6246C65.8405 46.6246 58.1136 37.4427 51.6034 45.2072C51.6034 45.2072 45.8082 50.7013 51.6034 56.8603C51.6034 56.8603 50.1107 56.7599 49.0696 55.7188C49.0696 55.7188 46.1344 59.9335 50.9637 63.6715C55.793 67.4095 63.846 63.0067 67.1199 57.4247C67.1199 57.4373 65.9408 47.4651 65.8405 46.6246Z" fill="#212121"/>
<path d="M49.0825 55.7316C49.0825 55.7316 47.9535 60.9874 52.118 62.9944C55.9313 64.8383 59.4937 64.1986 61.2875 63.2077C57.8254 65.2523 53.8365 65.892 50.9766 63.6843C46.1347 59.9463 49.0825 55.7316 49.0825 55.7316ZM51.6037 45.2075C51.6037 45.2075 48.6309 48.0298 49.0699 51.8933C49.0699 51.8682 49.6469 48.8828 52.8581 45.8723C56.0818 42.8367 60.7481 43.075 63.2192 44.2542C60.4094 42.197 55.7682 40.2527 51.6037 45.2075Z" fill="#808386"/>
<path d="M179.273 88.9347C169.552 111.915 146.81 128.033 120.293 128.033C84.9319 128.033 56.2822 99.371 56.2822 64.0229C56.2696 28.6623 84.9319 0 120.28 0C145.38 0 167.106 14.4503 177.605 35.4861C181.882 44.0785 182.509 81.2705 179.273 88.9347Z" fill="black"/>
<path d="M56.2701 52.1186C58.1265 53.0719 59.2178 55.2921 59.7698 56.8099C63.3322 26.5922 89.0216 3.1355 120.205 3.1355C138.983 3.1355 155.767 11.6401 166.93 24.9991V24.9866C166.93 24.9866 180.402 36.439 178.621 40.8669C178.621 40.8669 177.354 39.6752 175.31 38.3582C174.068 37.5679 172.537 36.7275 170.819 36.0752C170.819 36.0752 173.679 38.1449 176.025 40.9045C178.558 43.8899 180.478 47.6907 177.48 50.5632C178.37 59.7702 178.496 71.185 177.818 79.1753L180.503 76.8171L182.171 77.7202L181.343 80.0784C181.343 80.0784 179.863 83.5029 176.89 85.836C176.714 86.5761 176.526 87.2032 176.313 87.705C167.068 109.556 145.443 124.884 120.218 124.884C86.6007 124.884 59.3433 97.627 59.3433 64.01C59.3433 63.9723 59.3433 63.9347 59.3433 63.8971C57.7502 61.1124 55.4547 57.136 55.0533 56.5716C55.0533 56.5841 53.3223 50.5882 56.2701 52.1186Z" fill="#282727"/>
<path d="M180.666 51.5544C180.666 51.5544 183.25 44.8059 181.318 43.2129C181.318 43.2129 185.608 38.6972 172.876 27.5208C172.876 27.5208 182.033 43.4638 177.668 40.0017C175.473 38.2581 170.831 36.0881 170.831 36.0881C179.788 42.6108 177.467 51.1154 177.467 51.1154C177.868 52.6207 180.666 51.5544 180.666 51.5544Z" fill="black"/>
<path d="M162.038 32.3121C162.038 32.3121 150.398 22.0514 131.959 21.8005C131.959 21.8005 155.202 27.0438 162.038 32.3121Z" fill="black"/>
<path d="M164.258 40.8425C164.258 40.8425 153.86 30.193 130.014 30.5567C130.014 30.5567 156.833 36.2641 164.258 40.8425Z" fill="#403F3F"/>
<path d="M175.285 79.9658C175.285 79.9658 162.34 92.8356 130.014 91.9576C102.594 91.2175 95.1054 84.193 94.3528 83.6913C94.3528 83.6913 137.942 100.726 175.285 79.9658Z" fill="#403F3F"/>
<path d="M181.18 74.7976C181.18 74.7976 190.713 44.0782 144.979 33.0523C102.18 22.7414 71.4604 41.5192 73.0032 70.6582C73.0032 70.6582 95.9205 91.1671 133.928 89.7622C170.054 88.4201 181.18 74.7976 181.18 74.7976Z" fill="black"/>
<path d="M179.7 75.3372C179.7 75.3372 188.995 45.6965 144.402 35.0595C102.67 25.1124 73.242 43.9404 74.7473 72.0508C74.7473 72.0508 101.189 91.8824 133.627 89.775C168.787 87.4795 179.7 75.3372 179.7 75.3372Z" fill="#F1CE8E"/>
<path d="M181.18 74.7976C181.18 74.7976 183.551 65.9543 185.232 62.3919C186.925 58.817 191.667 50.5131 185.232 44.9186C179.926 40.3025 170.029 49.0204 168.486 49.773C165.212 51.3786 156.984 59.256 143.901 56.3835C135.308 54.4894 131.445 46.5618 128.811 37.2168C125.838 26.6926 118.349 15.6667 105.504 16.1685C91.8443 16.7079 82.123 41.6823 82.0979 51.3786C82.0979 51.3786 99.797 40.4029 105.504 41.3436C111.199 42.2844 115.188 45.6085 123.53 59.256C131.871 72.9035 141.894 80.4297 162.051 70.6457C162.051 70.6457 171.66 64.7627 175.097 66.0798C175.097 66.0798 180.051 67.9613 178.258 77.1057C178.258 77.1182 179.951 75.5503 181.18 74.7976Z" fill="#A25021"/>
<path d="M178.258 77.1185C178.258 77.1185 181.682 63.5462 184.304 57.5629C186.925 51.5921 186.198 47.7036 183.576 46.6248C180.955 45.546 179.261 44.8687 170.092 51.3788C162.879 56.5092 158.84 55.0291 157.36 54.8785C157.36 54.8785 144.44 60.0214 134.568 50.6011C130.353 46.5872 130.479 45.7844 127.368 38.8728C120.783 24.1842 116.079 17.9374 105.492 18.6775C92.4088 19.5932 83.9418 43.4512 82.0853 51.3914C82.0853 51.3914 82.148 49.0959 82.5118 47.2771C82.5118 47.2771 75.1236 51.9935 74.7473 72.0634C74.7473 72.0634 96.4729 91.3556 136.5 89.7249C166.316 88.4956 175.084 79.0377 178.258 77.1185Z" fill="#F1CE8E"/>
<path d="M107.009 18.6151C107.009 18.6151 115.677 18.7656 120.193 27.057C124.708 35.3609 128.346 42.8871 128.346 42.8871L130.428 46.6377C131.57 49.159 132.786 49.9367 135.784 51.6426L135.809 51.6803C135.809 51.6803 131.57 67.8616 127.092 61.527C127.092 61.527 111.939 37.1045 104.124 40.278C104.124 40.278 103.434 40.7798 102.33 41.6328C95.0048 43.3889 82.1099 51.3792 82.1099 51.3792C82.1099 51.3792 86.9392 18.8911 107.009 18.6151Z" fill="#F1CE8E"/>
<path d="M176.289 65.6283C176.289 65.6283 175.273 67.1586 175.285 68.6513C175.298 70.721 176.314 75.3872 175.988 79.0375C175.988 79.0375 138.206 105.868 82.713 78.3601C82.713 78.3601 81.7095 36.7276 106.333 36.7151C121.837 36.7151 128.56 67.6478 140.138 69.5294C159.493 72.6653 179.663 55.0163 176.289 65.6283Z" fill="#CC7A52"/>
<path d="M159.016 55.1171C159.016 55.1171 170.142 48.356 166.128 46.1107C162.114 43.8528 151.088 36.3392 128.045 34.8339L127.079 32.3252C127.079 32.3252 156.758 34.144 171.145 47.9546C171.158 47.9421 162.565 55.2801 159.016 55.1171Z" fill="#CC7A52"/>
<path d="M82.0977 51.379L80.9437 50.6013C80.9437 50.6013 74.5589 62.2293 76.3652 73.3305L74.7471 72.0636C74.7471 72.0636 73.4551 55.1798 82.5493 47.1016C82.5493 47.0891 82.2608 48.4689 82.0977 51.379Z" fill="#CC7A52"/>
<path d="M179.512 46.0982C181.268 45.6843 182.322 46.1108 183.576 46.625C186.198 47.7038 186.925 51.5923 184.303 57.5631C181.682 63.5339 178.257 77.1187 178.257 77.1187C178.257 77.1187 179.549 63.3959 183.3 56.246C185.922 51.2286 184.09 46.5874 179.512 46.0982Z" fill="#FFECB9"/>
<path d="M120.28 28.3113C115.225 19.8192 103.873 19.0791 103.346 19.0415C104.049 18.8533 104.764 18.7153 105.504 18.6652C116.078 17.9251 120.782 24.1844 127.38 38.8605C130.478 45.7721 130.365 46.5749 134.58 50.5888C134.982 50.9777 135.395 51.3289 135.809 51.6676C128.396 48.9958 125.8 37.581 120.28 28.3113Z" fill="#FFECB9"/>
<path d="M85.6102 78.9874C82.1105 61.075 94.5037 38.3082 106.119 38.9605C119.704 39.7256 128.422 68.7768 139.573 71.6619C148.429 73.9574 160.96 69.3287 166.881 66.0297C173.391 62.3921 175.9 64.3991 175.9 64.3991C173.454 64.0855 170.142 67.6479 170.142 67.6479C173.027 73.0291 172.3 81.1574 172.3 81.17C166.479 84.5944 155.98 88.922 136.487 89.7122C113.257 90.6655 97.7525 85.6355 85.6102 78.9874Z" fill="#A25021"/>
<path d="M105.755 41.4319C118.801 42.0842 127.331 73.5813 141.618 74.6852C155.278 75.7263 170.669 66.2809 170.669 66.2809C170.807 66.444 170.932 66.6196 171.045 66.7952C175.473 73.0294 173.14 80.6811 173.14 80.6811L172.312 81.1828C166.492 84.6072 155.993 88.9348 136.5 89.7251C114.423 90.6282 99.3331 86.125 87.4668 79.9912C85.0584 66.0802 94.7672 40.88 105.755 41.4319Z" fill="#567281"/>
<path d="M141.605 74.6847L142.157 74.7097C153.07 75.3244 164.936 69.4539 169.113 67.1584C169.113 67.1584 173.943 72.4268 170.819 81.9098L170.744 82.0353C165.049 85.0834 155.641 88.5078 139.786 89.5364C139.799 89.5113 141.643 85.9991 141.605 74.6847Z" fill="white"/>
<path d="M105.755 41.4319C118.337 42.0716 126.716 71.3737 140.113 74.4469C140.113 74.4469 140.426 83.6163 138.219 89.5369C138.206 89.5745 138.193 89.5996 138.181 89.6373C137.629 89.6623 137.077 89.6874 136.5 89.7125C114.423 90.6157 99.3331 86.1125 87.4668 79.9786C85.0584 66.0802 94.7672 40.88 105.755 41.4319Z" fill="white"/>
<path d="M88.5078 55.656L89.1225 54.2386C89.1727 54.1257 89.2228 54.0128 89.2855 53.8873C91.0667 50.5256 98.9818 44.2538 98.9818 44.2538V44.2663C91.1796 51.1654 85.5852 69.0526 87.4667 79.9656C86.8395 79.6395 86.2249 79.3259 85.6228 78.9872C84.1301 71.3607 85.5224 62.8686 88.5078 55.656Z" fill="#567281"/>
<path d="M102.682 67.4334C102.682 71.6606 106.106 75.0851 110.334 75.0851C114.561 75.0851 117.985 71.6606 117.985 67.4334C117.985 63.2062 114.561 59.7818 110.334 59.7818C106.106 59.7692 102.682 63.2062 102.682 67.4334Z" fill="black"/>
<path d="M103.535 67.4347C103.535 71.1978 106.583 74.2459 110.334 74.2459C114.097 74.2459 117.145 71.1978 117.145 67.4347C117.145 63.6716 114.097 60.636 110.334 60.636C106.583 60.6235 103.535 63.6716 103.535 67.4347Z" fill="#077BC0"/>
<path d="M106.044 67.9991C106.044 70.3699 107.963 72.3016 110.346 72.3016C112.717 72.3016 114.649 70.3824 114.649 67.9991C114.649 65.6284 112.729 63.6967 110.346 63.6967C107.963 63.6967 106.044 65.6284 106.044 67.9991Z" fill="#47C1EE"/>
<path d="M106.044 67.4348C106.044 69.8056 107.963 71.7373 110.346 71.7373C112.717 71.7373 114.649 69.8181 114.649 67.4348C114.649 65.064 112.729 63.1323 110.346 63.1323C107.963 63.1323 106.044 65.064 106.044 67.4348Z" fill="black"/>
<path d="M103.046 62.743C103.046 64.3862 104.376 65.7158 106.019 65.7158C107.662 65.7158 108.979 64.3862 108.979 62.743C108.979 61.0998 107.65 59.7701 106.019 59.7701C104.376 59.7701 103.046 61.0998 103.046 62.743Z" fill="white"/>
<path d="M111.664 70.2444C111.664 71.0723 112.328 71.7371 113.156 71.7371C113.972 71.7371 114.636 71.0723 114.636 70.2444C114.636 69.429 113.972 68.7642 113.156 68.7642C112.328 68.7517 111.664 69.4165 111.664 70.2444Z" fill="white"/>
<path d="M143.437 74.7352C143.7 78.2976 146.66 81.1074 150.286 81.1074C154.086 81.1074 157.16 78.0341 157.16 74.2334C157.16 73.6062 157.072 73.0041 156.909 72.4271C152.732 73.7818 148.04 74.7853 143.437 74.7352Z" fill="black"/>
<path d="M150.285 80.3424C153.66 80.3424 156.394 77.6079 156.394 74.2336C156.394 73.6942 156.306 73.1674 156.168 72.6656C152.418 73.8197 148.304 74.6852 144.227 74.7479C144.49 77.8838 147.087 80.3424 150.285 80.3424Z" fill="#077BC0"/>
<path d="M150.285 78.6108C152.418 78.6108 154.149 76.8798 154.149 74.7474C154.149 74.2456 154.048 73.769 153.873 73.33C151.477 73.9571 148.968 74.4338 146.447 74.647C146.447 74.6847 146.434 74.7223 146.434 74.7599C146.434 76.8798 148.153 78.6108 150.285 78.6108Z" fill="#47C1EE"/>
<path d="M150.286 78.0966C152.418 78.0966 154.149 76.3655 154.149 74.2331C154.149 73.907 154.099 73.5934 154.024 73.2798C151.59 73.9195 149.044 74.4213 146.472 74.6345C146.673 76.5788 148.291 78.0966 150.286 78.0966Z" fill="black"/>
<path d="M151.477 76.767C151.477 77.507 152.079 78.0966 152.807 78.0966C153.547 78.0966 154.137 77.4945 154.137 76.767C154.137 76.0269 153.534 75.4373 152.807 75.4373C152.079 75.4248 151.477 76.0269 151.477 76.767Z" fill="white"/>
<path d="M181.18 74.798C181.18 74.798 188.806 79.7528 175.084 86.9905C175.084 86.9905 182.685 80.7563 181.042 77.796C181.042 77.796 155.239 95.4575 114.523 89.4741C73.003 83.3654 60.0078 58.8801 57.0098 54.2389C57.0098 54.2389 56.2698 51.8556 55.2663 52.9846C55.2663 52.9846 54.6767 54.0006 56.6586 56.8731C58.6405 59.7456 60.5221 64.7505 60.8984 66.6321C60.8984 66.6321 56.7213 59.4947 55.1785 57.9895C55.1785 57.9895 52.0676 55.5309 54.0119 51.9811C55.1408 49.9239 57.637 50.7518 57.637 50.7518C57.637 50.7518 68.412 81.1702 115.012 88.3076C159.153 95.0812 179.825 75.927 181.18 74.798Z" fill="black"/>
<path d="M160.232 91.9077C160.232 91.9077 135.947 80.9947 106.884 92.8986C106.884 92.8986 136.499 128.033 160.232 91.9579V91.9077Z" fill="#212121"/>
<path d="M160.232 91.958C160.232 91.958 142.997 85.0465 121.823 89.5998C121.823 89.5998 147.713 88.7468 160.232 91.958Z" fill="#808386"/>
<path d="M160.232 91.9579C160.232 91.9579 142.332 81.6846 112.766 90.7035C112.766 90.7035 142.545 85.8115 160.232 91.9579Z" fill="black"/>
<path d="M112.603 104.966C112.603 104.966 112.277 113.834 105.666 113.282C102.28 112.994 101.665 110.61 101.665 110.61C101.665 110.61 110.859 103.774 112.603 104.966Z" fill="#808386"/>
<path d="M98.7428 112.655C98.7428 112.655 102.092 115.402 104.074 115.603C104.074 115.603 100.9 115.402 98.7428 112.655Z" fill="#808386"/>
<path d="M113.895 106.019C113.895 106.019 111.662 102.683 107.899 100.901C107.899 100.901 111.437 101.654 113.895 106.019Z" fill="#808386"/>
<path d="M99.1442 100.45C99.1442 100.45 98.9686 112.279 105.404 112.868C112.089 113.471 112.604 104.891 112.604 104.891C112.604 104.891 107.21 99.0453 99.1442 100.45Z" fill="black"/>
<path d="M100.009 100.839C100.009 100.839 99.8211 111.689 105.416 112.065C111.462 112.479 112.026 104.527 112.026 104.527C112.026 104.527 105.315 98.7566 100.009 100.839Z" fill="#461A11"/>
<path d="M109.957 110.108C109.405 108.641 107.674 107.612 105.667 107.612C103.986 107.612 102.531 108.352 101.766 109.456C102.568 110.886 103.722 111.952 105.403 112.065C107.498 112.216 108.978 111.3 109.957 110.108Z" fill="#812D2D"/>
<path d="M105.403 112.065C107.26 112.191 108.602 111.526 109.555 110.548C108.941 108.93 107.297 108.139 105.654 108.139C104.224 108.139 102.757 108.98 102.067 109.946C102.794 111.1 103.923 111.965 105.403 112.065Z" fill="#F39C9D"/>
<path d="M102.079 109.958C102.079 109.958 104.977 107.236 108.326 108.98C108.339 108.98 104.977 106.559 102.079 109.958Z" fill="#FAD3D4"/>
<path d="M109.355 110.121C109.317 110.159 108.238 111.438 105.842 111.526C103.522 111.601 102.393 109.883 102.28 109.72C102.205 109.807 102.142 109.883 102.079 109.97C102.857 111.137 103.923 111.977 105.403 112.078C107.26 112.203 108.589 111.538 109.555 110.56C109.505 110.397 109.43 110.259 109.355 110.121Z" fill="#C25C5B"/>
<path d="M105.265 101.366C105.228 101.428 105.178 101.479 105.14 101.541C104.124 103.348 104.726 105.605 106.47 106.584C108.213 107.562 110.546 106.935 111.45 105.066C111.813 104.313 111.751 104.514 111.813 104.313C109.493 102.507 107.147 102.545 105.265 101.366Z" fill="black"/>
<path d="M101.477 99.6721C101.439 99.7348 101.377 99.785 101.339 99.8477C100.198 101.641 100.674 103.987 102.405 105.091C104.136 106.195 106.457 105.63 107.611 103.837C107.736 103.648 107.824 103.448 107.912 103.247C105.83 102.269 103.334 100.989 101.477 99.6721Z" fill="black"/>
<path d="M99.1438 100.927C99.1438 107.387 101.678 110.61 101.678 110.61L101.816 110.987C99.0686 108.415 98.8929 102.871 98.8929 102.871C98.6922 103.072 98.3536 103.423 98.3536 103.423C98.617 101.892 99.1438 100.927 99.1438 100.927Z" fill="url(#paint0_linear)"/>
<path d="M101.765 99.3086C102.066 98.9448 103.885 97.8661 103.885 97.8661C102.179 98.3678 100.524 99.3212 100.524 99.3212C100.712 99.3212 101.765 99.3086 101.765 99.3086Z" fill="#403F3F"/>
<path d="M112.603 105.041C112.603 105.041 112.603 104.978 112.603 105.003C112.603 105.041 112.541 105.492 112.541 105.492C112.967 105.643 113.908 106.019 113.908 106.019C113.469 105.618 112.603 105.041 112.603 105.041Z" fill="#403F3F"/>
<path d="M103.886 97.8658C103.886 97.8658 100.286 99.07 99.6834 100.023C98.981 101.14 98.981 101.14 98.3538 103.435C98.3538 103.435 97.8019 102.181 98.542 99.8854C99.1691 97.9913 103.886 97.8658 103.886 97.8658Z" fill="black"/>
<path d="M105.428 100.701C105.391 100.764 105.34 100.814 105.303 100.877C104.287 102.683 104.889 104.941 106.632 105.919C108.376 106.898 110.609 106.22 111.625 104.414C111.738 104.226 111.662 104.426 111.738 104.226C109.881 102.833 107.31 101.88 105.428 100.701Z" fill="#6A96AA"/>
<path d="M106.156 101.14C106.118 101.19 106.081 101.24 106.043 101.303C105.265 102.695 105.73 104.413 107.059 105.166C108.401 105.919 110.107 105.392 110.872 104.012C110.96 103.849 110.973 103.849 111.035 103.686C109.417 102.996 107.674 102.005 106.156 101.14Z" fill="white"/>
<path d="M110.346 103.172C108.489 101.73 107.448 101.868 106.156 101.128C106.119 101.178 106.081 101.228 106.043 101.291C105.454 102.332 105.579 103.574 106.244 104.439C108.502 105.806 110.07 103.599 110.346 103.172Z" fill="#D0DFE6"/>
<path d="M101.214 99.6597C101.101 100.074 101.239 99.3712 101.201 99.4465C100.26 101.353 100.975 103.636 102.807 104.552C104.638 105.467 106.896 104.665 107.849 102.758C107.95 102.557 108.025 102.344 108.088 102.131C105.93 101.378 103.208 100.776 101.214 99.6597Z" fill="#6A96AA"/>
<path d="M102.091 99.6598C102.054 99.7225 102.016 99.7727 101.991 99.8229C101.263 101.278 101.815 103.034 103.22 103.724C104.625 104.426 106.356 103.812 107.084 102.344C107.171 102.169 107.234 101.993 107.284 101.817C105.578 101.228 103.697 100.475 102.091 99.6598Z" fill="white"/>
<path d="M106.482 101.541C105.002 100.989 103.447 100.35 102.092 99.6598C102.054 99.7225 102.017 99.7727 101.991 99.8229C101.44 100.927 101.628 102.194 102.355 103.047C104.726 104.339 106.231 101.993 106.482 101.541Z" fill="#D0DFE6"/>
<path d="M113.895 106.02C113.895 106.02 108.752 98.255 99.3195 99.4341C99.3195 99.4341 98.9181 100.877 99.3195 101.052C99.3195 101.052 104.977 98.669 113.895 106.02Z" fill="black"/>
<path d="M98.7428 112.655C98.7428 112.655 102.769 117.886 108.753 114.486C108.753 114.486 103.121 119.843 98.7428 112.655Z" fill="black"/>
<path d="M95.1802 128.41C95.1802 128.41 73.8057 140.464 40.866 131.232C40.866 131.232 39.7747 151.202 32.1607 160.647C32.1607 160.647 75.5242 160.986 97.9649 142.772C97.9774 142.772 98.8429 141.229 95.1802 128.41Z" fill="#1B1B1A"/>
<path d="M95.5317 130.216C95.5317 130.216 69.6039 142.496 41.3931 132.574C41.3931 132.574 45.9465 138.495 46.0092 146.297C46.0092 146.297 53.9368 149.997 70.5196 147.727C70.5196 147.727 93.9511 143.801 97.4634 138.231C97.4759 138.231 96.9616 135.585 95.5317 130.216Z" fill="#282727"/>
<path d="M96.1218 131.859L95.6953 130.203C89.0848 132.8 63.157 140.163 41.5568 132.561C41.5568 132.561 41.6697 132.712 41.8704 133L44.078 134.656C44.0655 134.669 62.3918 142.722 96.1218 131.859Z" fill="#808386"/>
<path d="M38.5207 153.71C41.619 144.441 41.8573 133.013 41.8573 133.013C44.78 133.59 46.0594 133.904 48.1542 134.431C53.5982 143.362 49.9856 154.676 48.1668 158.113C44.6922 158.54 41.782 158.803 39.6873 158.954C39.1981 157.311 38.8217 155.542 38.5207 153.71Z" fill="black"/>
<path d="M47.6399 146.083C47.6399 146.083 50.0608 141.066 44.4036 131.783C44.4036 131.783 39.1854 125.261 37.9687 111.689C37.9687 111.689 38.069 108.063 33.5659 108.277C33.5659 108.277 16.4563 109.556 24.0578 126.503L21.4738 126.615C21.4738 126.615 14.5246 129.563 9.90848 133.427C9.90848 133.427 7.08616 139.222 12.7434 144.352C12.7434 144.352 9.90848 145.582 10.3851 147.626C10.3851 147.626 11.2005 154.061 15.1768 156.331C15.1768 156.331 15.6786 156.771 17.0584 156.545C17.0584 156.545 18.2375 170.619 32.7254 165.902C32.7129 165.902 51.4657 162.189 47.6399 146.083Z" fill="#A05021"/>
<path d="M30.48 129.852C30.48 129.852 25.5628 127.958 21.7496 128.121C21.7496 128.121 12.3418 133.088 10.824 134.343C10.824 134.343 10.3348 140.702 12.9941 142.697L14.9885 142.634C14.9885 142.634 20.4576 138.67 22.9789 138.156C22.9789 138.156 30.4173 136.964 31.5587 137.278C31.5587 137.278 32.8256 133.164 30.48 129.852Z" fill="#FBD394"/>
<path d="M13.4333 145.632C13.4333 145.632 11.4765 147.162 12.5552 149.696C12.5552 149.696 13.5838 153.785 16.0549 154.927C16.0549 154.927 17.8988 154.839 18.8773 154.563C18.8773 154.563 24.8731 150.762 26.3909 149.671C26.3909 149.671 29.6648 148.266 33.453 147.639L34.7074 146.384C34.7074 146.384 35.5353 142.069 31.2704 138.971C31.2704 138.971 27.0934 138.557 22.7156 139.811C22.7031 139.799 14.4368 144.729 13.4333 145.632Z" fill="#FBD394"/>
<path d="M22.6407 163.82C22.6407 163.82 33.9049 163.482 38.1697 155.203C38.1697 155.203 37.8311 150.323 34.8707 149.132C34.8707 149.132 30.5557 149.244 26.7801 151.239C26.7801 151.239 20.2448 155.679 18.9277 156.959C18.9403 156.959 19.0281 161.851 22.6407 163.82Z" fill="#FBD394"/>
<path d="M26.2279 127.205C26.2279 127.205 16.7825 110.673 35.2468 110.121C35.2468 110.121 36.5639 110.372 36.7771 113.169C36.7771 113.169 38.4956 127.092 43.0741 133.201C43.0741 133.201 55.7934 145.256 41.4685 159.355C41.4685 159.355 31.8098 167.859 22.6279 163.833L26.4161 162.767C26.4161 162.767 34.0802 165.677 39.8378 155.868C39.8378 155.868 40.3395 149.671 35.6858 148.078L36.2252 146.497C36.2252 146.497 36.2127 139.837 32.5248 138.206C32.5248 138.206 33.3402 136.538 33.152 135.76C33.152 135.76 37.2413 136.249 38.2071 136.475C38.2071 136.475 35.9493 134.531 33.2273 134.28C33.2273 134.28 32.6377 130.14 31.2077 128.447C31.2077 128.447 27.545 127.607 26.2279 127.205Z" fill="#FBD394"/>
<path d="M21.737 128.133C21.737 128.133 21.3983 135.27 22.9788 138.156C22.9788 138.156 30.2793 137.052 31.5587 137.277C31.5587 137.277 32.7127 132.21 30.4674 129.852C30.48 129.852 26.0646 127.92 21.737 128.133Z" fill="#EFA884"/>
<path d="M22.7028 139.799C22.7028 139.799 25.0234 147.79 26.3781 149.659C26.3781 149.659 31.5461 147.852 33.4402 147.626L34.6946 146.372C34.6946 146.372 35.5852 141.455 31.2576 138.959C31.2702 138.959 27.1684 138.281 22.7028 139.799Z" fill="#EFA884"/>
<path d="M26.7923 151.239C26.7923 151.239 30.0787 159.543 32.4119 161.023C32.4119 161.023 37.0154 158.514 38.1694 155.203C38.1694 155.203 38.044 150.411 34.8704 149.132C34.8704 149.132 30.5679 149.332 26.7923 151.239Z" fill="#EFA884"/>
<path d="M35.5224 110.196C35.5224 110.196 32.7126 110.146 33.1642 113.282C33.1642 113.282 34.6945 129.212 42.1831 136.024C42.1831 136.024 48.3044 140.702 48.2291 145.808C48.2291 145.808 49.333 140.364 43.588 133.979C43.588 133.979 38.1064 125.525 36.5384 111.839C36.5635 111.839 36.5761 110.773 35.5224 110.196Z" fill="#EFB78F"/>
<path d="M34.4814 135.923C34.4814 135.923 34.6319 137.152 33.8667 137.829C33.8667 137.829 38.8089 141.605 37.1908 147.425C37.1908 147.425 42.4341 151.188 40.7281 156.582C40.7281 156.582 38.834 160.985 31.1824 162.929C31.1824 162.929 35.8988 162.202 39.8501 155.855C39.8501 155.855 40.1636 149.595 35.6981 148.065C35.6981 148.065 36.9776 140.275 32.5371 138.193C32.5371 138.193 33.3901 136.45 33.1643 135.747L34.4814 135.923Z" fill="#CC7A52"/>
<path d="M34.5566 134.531C34.5566 134.531 33.9169 128.811 32.9887 127.795C32.9887 127.795 28.4604 125.863 25.613 125.963L26.2402 127.205C26.2402 127.205 30.0284 128.146 31.7092 129.175C31.7092 129.175 32.5873 131.182 33.2395 134.28C33.2395 134.28 33.2395 134.28 34.5566 134.531Z" fill="#CC7A52"/>
<path d="M31.5587 137.278C31.5587 137.278 26.2778 137.666 22.6527 138.231C22.6527 138.231 19.9056 139.147 14.976 142.634L12.9815 142.696C12.9815 142.696 19.0401 138.181 22.5022 137.027C22.5022 137.027 28.498 135.91 31.6465 136.751L31.5587 137.278Z" fill="#CC7A52"/>
<path d="M15.0264 154.224C15.0264 154.224 17.3219 154.199 19.2662 153.22L25.952 148.943C25.952 148.943 30.1416 146.522 34.6949 146.384L33.4405 147.639C33.4405 147.639 28.3478 149.219 26.3785 149.671C26.3785 149.671 21.0599 153.333 18.8648 154.563C18.8648 154.563 17.1589 154.939 16.0425 154.926C16.0425 154.914 15.7414 155.014 15.0264 154.224Z" fill="#CC7A52"/>
<path d="M37.5051 139.486C37.5051 139.486 48.255 129.739 34.5573 118.914C34.5573 118.914 26.8806 112.454 24.698 103.975C24.698 103.975 23.9203 99.5217 17.8868 100.713C12.6937 101.742 11.4142 108.804 12.6561 112.605C13.8979 116.418 15.6164 119.165 21.4492 119.541C21.4492 119.554 36.188 136.676 37.5051 139.486Z" fill="#A05021"/>
<path d="M21.4492 119.554C21.4492 119.554 14.4373 117.284 13.923 110.811C13.4087 104.326 16.2059 101.817 19.2666 101.692C22.3398 101.566 23.7321 103.912 24.4722 107.123C24.9865 109.381 28.2855 115.829 33.9678 120.382C33.9678 120.382 45.0062 128.585 37.5176 139.486L21.4492 119.554Z" fill="#FBD394"/>
<path d="M25.2495 109.218L19.2536 108.729C19.2536 108.729 20.1567 103.435 16.2933 102.758C16.2933 102.758 13.7218 104.288 13.8724 110.021C13.8724 110.021 13.1323 116.18 21.4487 119.554L29.1255 115.816L25.2495 109.218Z" fill="url(#paint1_linear)"/>
<path d="M19.1661 119.241C19.1661 119.241 5.55626 121.837 2.57086 126.604L20.0442 128.234L19.1661 119.241Z" fill="#A05021"/>
<path d="M19.3043 120.658C19.3043 120.658 7.73902 122.865 4.47766 126.779C4.47766 126.779 14.6631 129.062 20.0444 128.234L19.3043 120.658Z" fill="#FBD394"/>
<path d="M28.5616 103.059L46.198 105.43C46.198 105.43 50.6134 106.408 50.9144 113.057C50.9144 113.057 52.5576 165.125 52.382 166.38C52.382 166.38 52.3444 174.583 45.9973 172.024L16.921 165.69C16.921 165.69 15.0019 165.05 14.3245 158.653C14.3245 158.653 10.8624 110.573 9.88403 107.236C9.88403 107.236 10.2478 102.833 13.1328 101.153L28.5616 103.059Z" fill="#383938"/>
<path d="M17.8115 164.837C17.8115 164.837 43.4884 169.014 46.0097 170.281C46.0097 170.281 51.2781 173.003 51.4788 166.191L49.9986 112.417C49.9986 112.417 49.0578 107.399 45.3825 106.659C45.3825 106.659 15.9802 102.419 13.6972 102.181C13.6972 102.181 10.4986 104.64 11.1257 110.021C11.1257 110.021 14.7258 143.487 15.1021 157.812C15.1021 157.8 15.1774 163.758 17.8115 164.837Z" fill="#595A5C"/>
<path d="M47.9162 170.795C47.9162 170.795 48.6814 170.82 48.719 164.912L47.0633 116.844C47.0633 116.844 47.1009 112.993 41.5064 112.253L11.0504 107.261L15.1271 158.527C15.1271 158.527 15.3905 163.846 17.8114 164.824C17.8114 164.836 46.85 170.87 47.9162 170.795Z" fill="#BBBDBF"/>
<path d="M15.6664 161.701C15.6664 161.701 37.643 151.929 47.0633 116.844L48.6814 166.58C48.6814 166.58 48.7943 170.142 47.9037 170.795C47.9037 170.795 20.6212 167.295 17.5731 164.711C17.5731 164.724 16.0177 163.369 15.6664 161.701Z" fill="#808284"/>
<path d="M18.476 107.863L25.8266 104.464L33.0894 105.555L26.3158 109.117L18.476 107.863Z" fill="#BBBDBF"/>
<path d="M28.8751 109.519L35.4354 105.919L37.342 106.207L31.6598 109.97L28.8751 109.519Z" fill="#BBBDBF"/>
<path d="M22.5782 103.975L16.344 107.512L14.7384 107.262L21.098 103.749L22.5782 103.975Z" fill="#BBBDBF"/>
<path d="M33.4406 124.283C33.3654 122.652 32.5249 121.247 31.3207 120.432C31.3333 120.281 31.3458 120.131 31.3333 119.98C31.2706 118.738 30.4427 117.735 29.3514 117.459L29.4643 117.296C30.681 115.352 32.3995 116.292 32.3995 116.292L31.7723 114.775C29.7904 114.662 28.6113 117.384 28.6113 117.384C28.6113 117.384 28.3228 115.101 26.805 115.038C26.805 115.038 25.8517 115.364 25.3876 115.138C25.3876 115.138 25.3625 116.869 27.4573 117.735C26.6294 118.237 26.09 119.19 26.1402 120.269C26.1402 120.394 26.1653 120.507 26.1778 120.62C24.9736 121.561 24.221 123.091 24.3088 124.785C24.4343 127.456 26.5792 129.501 29.1005 129.363C31.6218 129.238 33.5661 126.955 33.4406 124.283Z" fill="#595A5C"/>
<path d="M13.132 123.744C25.4499 123.618 24.9481 130.969 24.8101 133.791L32.098 137.253C32.098 137.253 36.827 141.142 32.6876 146.172C32.6876 146.172 30.8185 148.242 27.2185 149.019L29.6144 150.913C29.6144 150.913 30.1914 154.94 28.5858 156.709C26.7669 158.716 19.0024 159.142 17.0456 159.456L13.132 123.744Z" fill="#57585A"/>
<path d="M14.1857 144.679C14.1857 144.679 10.3222 143.876 9.18076 151.653C9.18076 151.653 8.66647 158.615 17.7857 158.314C17.7857 158.314 30.7183 158.389 29.6019 151.064C29.6019 151.064 28.7113 145.645 22.3391 145.269L14.1857 144.679Z" fill="#A05021"/>
<path d="M14.7629 144.729C14.7629 144.729 12.1663 144.792 11.1252 150.06C10.0715 155.316 13.3078 156.696 15.8792 156.884C18.5887 157.085 27.2187 157.198 28.0592 152.883C28.0592 152.883 29.4891 149.157 22.8535 145.344L14.7629 144.729Z" fill="#FBD394"/>
<path d="M11.0752 137.04C11.0752 137.04 6.65978 141.781 12.48 146.322C12.48 146.322 15.0013 149.483 21.1101 147.213C21.1101 147.213 25.2495 146.059 28.3102 145.381C28.3102 145.381 33.8545 145.005 32.4998 138.608C31.2078 132.537 22.3268 133.051 21.8878 133.101C21.4362 133.164 11.0752 137.04 11.0752 137.04Z" fill="#A05021"/>
<path d="M12.6555 136.45C12.6555 136.45 8.86731 141.342 12.5928 144.679C12.5928 144.679 15.2019 147.664 18.8772 146.535C22.5399 145.406 26.3532 144.377 28.3978 144.001C28.3978 144.001 32.3993 143.336 30.9191 138.507C30.9191 138.507 29.301 133.628 19.9183 133.791C19.9183 133.778 13.4708 135.108 12.6555 136.45Z" fill="#FBD394"/>
<path d="M11.8526 145.807C11.8526 145.807 13.9474 148.667 18.5509 147.902C18.5509 147.902 19.7802 147.814 21.0973 147.212C21.0973 147.212 23.6437 146.51 25.2869 146.109C25.2869 146.109 26.6792 147.501 26.9928 148.053C26.9928 148.053 18.7767 151.452 15.0763 149.922C11.401 148.379 11.8526 145.807 11.8526 145.807Z" fill="#CC7A52"/>
<path d="M2.58318 126.591C2.58318 126.591 -2.09561 134.293 1.14065 137.855C4.37692 141.418 8.51634 140.151 10.423 139.586C12.3296 139.022 15.0265 138.094 18.7018 138.094C18.7018 138.094 24.0329 137.78 22.2391 130.392C20.4454 123.004 7.73863 124.245 4.48982 126.767L2.58318 126.591Z" fill="#A05021"/>
<path d="M4.48989 126.766C4.48989 126.766 -0.11364 133.64 2.69615 136.914C2.69615 136.914 4.74077 139.95 9.50736 138.294C14.2614 136.638 16.8203 136.337 18.7521 136.199C18.7521 136.199 21.9131 135.973 20.8845 131.018C19.8434 126.064 11.4893 124.809 8.65439 125.186C8.64185 125.186 5.33032 125.336 4.48989 126.766Z" fill="#FBD394"/>
<path d="M19.3166 128.322C19.3166 128.322 13.9228 126.816 4.06347 132.561C4.06347 132.561 1.96868 133.452 3.37357 137.616C3.37357 137.616 5.56872 139.498 9.49489 138.294C13.4211 137.077 15.3402 136.638 18.012 136.262C18.012 136.262 21.3487 136.701 21.0351 132.16C21.0476 132.147 21.1731 129.651 19.3166 128.322Z" fill="#EFA884"/>
<path d="M11.0378 139.398C11.0378 139.398 14.5124 138.156 18.3257 138.093C18.3257 138.093 21.6874 138.307 22.5028 134.368L23.732 134.544C23.732 134.544 27.8464 138.457 17.8114 140.665C17.8114 140.665 11.6023 139.574 10.649 141.693C10.649 141.693 10.5235 140.489 11.0378 139.398Z" fill="#CC7A52"/>
<path d="M130.416 203.697C130.416 203.697 136.11 203.233 140.689 200.687C141.742 200.135 142.746 199.432 143.599 198.554C143.687 198.479 143.762 198.391 143.837 198.303L143.85 198.291C143.85 198.291 138.268 208.489 143.16 233.639C138.531 233.84 134.279 233.413 132.535 232.51C132.535 232.51 133.288 228.12 131.657 222.864C130.039 217.608 130.165 205.077 130.416 203.697Z" fill="#212121"/>
<path d="M81.9343 225.749C84.142 221.27 87.2779 208.075 90.025 191.015C93.7254 192.132 97.2752 193.022 100.687 193.725C100.148 210.357 100.938 226.915 104.362 240.036C97.5888 239.961 90.3511 238.33 83.9413 233.526C83.9413 233.513 79.5385 230.59 81.9343 225.749Z" fill="#1B1B1A"/>
<defs>
<linearGradient id="paint0_linear" x1="101.315" y1="111.129" x2="98.4463" y2="101.125" gradientUnits="userSpaceOnUse">
<stop stop-color="#545556"/>
<stop offset="0.1328" stop-color="#4F5052"/>
<stop offset="0.3275" stop-color="#414346"/>
<stop offset="0.5604" stop-color="#2D3033"/>
<stop offset="0.8205" stop-color="#14161A"/>
<stop offset="1" stop-color="#020203"/>
</linearGradient>
<linearGradient id="paint1_linear" x1="29.4145" y1="111.93" x2="13.7311" y2="110.776" gradientUnits="userSpaceOnUse">
<stop stop-color="#F5A176"/>
<stop offset="0.2376" stop-color="#F6A97B"/>
<stop offset="0.6337" stop-color="#F8BD87"/>
<stop offset="1" stop-color="#FBD394"/>
</linearGradient>
</defs>
</svg>
